<svg xmlns="http://www.w3.org/2000/svg" viewBox="0 0 800 460" width="800" height="460" xmlns:c2pa="http://c2pa.org/manifest"><metadata><c2pa:manifest>AAAWgmp1bWIAAAAeanVtZGMycGEAEQAQgAAAqgA4m3EDYzJwYQAAABZcanVtYgAAAEdqdW1kYzJtYQARABCAAACqADibcQN1cm46YzJwYTo3ODM1YzAwYS0yNTYyLTRkNzgtOThhNy1jYmE2NzkwOTg2NGMAAAADl2p1bWIAAAApanVtZGMyYXMAEQAQgAAAqgA4m3EDYzJwYS5hc3NlcnRpb25zAAAAALxqdW1iAAAARGp1bWRjYm9yABEAEIAAAKoAOJtxE2MycGEuaW5ncmVkaWVudC52MwAAAAAYYzJzaDcOl7NLNr67yHDHeElnb4UAAABwY2JvcqNpZGM6Zm9ybWF0bWltYWdlL3N2Zyt4bWxqaW5zdGFuY2VJRHgseG1wOmlpZDo1MWVmNjJmNC1mMDhkLTQwOWItYmRhOC1mNDg2M2M1NjhmNWVscmVsYXRpb25zaGlwaHBhcmVudE9mAAAB4mp1bWIAAABBanVtZGNib3IAEQAQgAAAqgA4m3ETYzJwYS5hY3Rpb25zLnYyAAAAABhjMnNoK9RjGrbGEuC+bpznyNmJYAAAAZljYm9yomdhY3Rpb25zgqJmYWN0aW9ua2MycGEub3BlbmVkanBhcmFtZXRlcnOha2luZ3JlZGllbnRzgaJjdXJseC1zZWxmI2p1bWJmPWMycGEuYXNzZXJ0aW9ucy9jMnBhLmluZ3JlZGllbnQudjNkaGFzaFggsayr0AEE53pIenJGAjexmGo8NpLUqAmVjG18TFwWkU+kZmFjdGlvbngdY29tLmFudGhyb3BpYy5jbGF1ZGUucHJvdmlkZWRqcGFyYW1ldGVyc6F4H2NvbS5hbnRocm9waWMub3JpZ2luLWNvbmZpZGVuY2VndW5rbm93bmtkZXNjcmlwdGlvbnhmQ2xhdWRlIHByb3ZpZGVkIHRoaXMgZmlsZSBhdCB0aGUgcmVxdWVzdCBvZiBhIHVzZXIgYW5kIG1heSBoYXZlIGNyZWF0ZWQgb3IgbW9kaWZpZWQgdGhlIGZpbGUgY29udGVudHMubXNvZnR3YXJlQWdlbnShZG5hbWVmQ2xhdWRlcmFsbEFjdGlvbnNJbmNsdWRlZPUAAADIanVtYgAAAEBqdW1kY2JvcgARABCAAACqADibcRNjMnBhLmhhc2guZGF0YQAAAAAYYzJzaF6kmeg5HFFw7nyuVhD0KbsAAACAY2JvcqVjYWxnZnNoYTI1NmNwYWRNAAAAAAAAAAAAAAAAAGRoYXNoWCAD2SDXebKak1EsltLl69rOWddLjLJYAXKq+pMjU+wuTWRuYW1lbmp1bWJmIG1hbmlmZXN0amV4Y2x1c2lvbnOBomVzdGFydBiWZmxlbmd0aBkeBAAAAj5qdW1iAAAAJ2p1bWRjMmNsABEAEIAAAKoAOJtxA2MycGEuY2xhaW0udjIAAAACD2Nib3KlY2FsZ2ZzaGEyNTZpc2lnbmF0dXJleE1zZWxmI2p1bWJmPS9jMnBhL3VybjpjMnBhOjc4MzVjMDBhLTI1NjItNGQ3OC05OGE3LWNiYTY3OTA5ODY0Yy9jMnBhLnNpZ25hdHVyZWppbnN0YW5jZUlEeCx4bXA6aWlkOjRhOTg1NWI0LTZkY2YtNDQ2My1iZWI5LWY2N2VmZTJjZjU1YnJjcmVhdGVkX2Fzc2VydGlvbnODomN1cmx4LXNlbGYjanVtYmY9YzJwYS5hc3NlcnRpb25zL2MycGEuaW5ncmVkaWVudC52M2RoYXNoWCCxrKvQAQTnekh6ckYCN7GYajw2ktSoCZWMbXxMXBaRT6JjdXJseCpzZWxmI2p1bWJmPWMycGEuYXNzZXJ0aW9ucy9jMnBhLmFjdGlvbnMudjJkaGFzaFggx7p79vJE6KZjDdEofqaKyhq5fpcidFkliKArl+ZLapWiY3VybHgpc2VsZiNqdW1iZj1jMnBhLmFzc2VydGlvbnMvYzJwYS5oYXNoLmRhdGFkaGFzaFggKTDR/lDfeS5UiGwB5Z+cijTuYDSrbQjopkH2FOvBypF0Y2xhaW1fZ2VuZXJhdG9yX2luZm+jZG5hbWVvQW50aHJvcGljIEZpbGVzZ3ZlcnNpb25lMS4wLjBrc3BlY1ZlcnNpb25lMi40LjAAABA4anVtYgAAAChqdW1kYzJjcwARABCAAACqADibcQNjMnBhLnNpZ25hdHVyZQAAABAIY2JvctKEWQISogEmGCFZAgowggIGMIIBjaADAgECAhRA5aAK7sI50L64g/oGQgU9Z1UTADAKBggqhkjOPQQDAzBJMRcwFQYDVQQKEw5BbnRocm9waWMsIFBCQzEuMCwGA1UEAxMlQW50aHJvcGljIENvbnRlbnQgQ3JlZGVudGlhbHMgUm9vdCBDQTAeFw0yNjA4MDcxODQzNTZaFw0yODA4MDYxOTQzNTZaMEQxFzAVBgNVBAoTDkFudGhyb3BpYywgUEJDMSkwJwYDVQQDEyBBbnRocm9waWMgQ2xhdWRlIENvbnRlbnQgU2lnbmluZzBZMBMGByqGSM49AgEGCCqGSM49AwEHA0IABJh6CmvLUBgFFNU0vUKlOVtE6djd17L5SuwX0LemFisBM3dkd/3cyjxFA3Qo5S46fX0/ihY0VZ7mfb9KF703t5OjWDBWMA4GA1UdDwEB/wQEAwIHgDAVBgNVHSUEDjAMBgorBgEEAYPoXgIBMAwGA1UdEwEB/wQCMAAwHwYDVR0jBBgwFoAUzlHiBIFOZFsj+OPEz5o+nMHXXMIwCgYIKoZIzj0EAwMDZwAwZAIwMXMdFJ4BetLLVY7ORuE9noqbbAZOZn/aArXyTwFAZfKrPzxF2vPoJNf1+UCdg1XGAjBwX1zd9WGqYkqmL5SFqw1QySjr1zJfpJM9+1rdDwSPLMOPOjKuiXjoU/pUUeG9RwmhY3BhZFkNngAAAAAAAAAAAAAAAAAAAAAAAAAAAAAAAAAAAAAAAAAAAAAAAAAAAAAAAAAAAAAAAAAAAAAAAAAAAAAAAAAAAAAAAAAAAAAAAAAAAAAAAAAAAAAAAAAAAAAAAAAAAAAAAAAAAAAAAAAAAAAAAAAAAAAAAAAAAAAAAAAAAAAAAAAAAAAAAAAAAAAAAAAAAAAAAAAAAAAAAAAAAAAAAAAAAAAAAAAAAAAAAAAAAAAAAAAAAAAAAAAAAAAAAAAAAAAAAAAAAAAAAAAAAAAAAAAAAAAAAAAAAAAAAAAAAAAAAAAAAAAAAAAAAAAAAAAAAAAAAAAAAAAAAAAAAAAAAAAAAAAAAAAAAAAAAAAAAAAAAAAAAAAAAAAAAAAAAAAAAAAAAAAAAAAAAAAAAAAAAAAAAAAAAAAAAAAAAAAAAAAAAAAAAAAAAAAAAAAAAAAAAAAAAAAAAAAAAAAAAAAAAAAAAAAAAAAAAAAAAAAAAAAAAAAAAAAAAAAAAAAAAAAAAAAAAAAAAAAAAAAAAAAAAAAAAAAAAAAAAAAAAAAAAAAAAAAAAAAAAAAAAAAAAAAAAAAAAAAAAAAAAAAAAAAAAAAAAAAAAAAAAAAAAAAAAAAAAAAAAAAAAAAAAAAAAAAAAAAAAAAAAAAAAAAAAAAAAAAAAAAAAAAAAAAAAAAAAAAAAAAAAAAAAAAAAAAAAAAAAAAAAAAAAAAAAAAAAAAAAAAAAAAAAAAAAAAAAAAAAAAAAAAAAAAAAAAAAAAAAAAAAAAAAAAAAAAAAAAAAAAAAAAAAAAAAAAAAAAAAAAAAAAAAAAAAAAAAAAAAAAAAAAAAAAAAAAAAAAAAAAAAAAAAAAAAAAAAAAAAAAAAAAAAAAAAAAAAAAAAAAAAAAAAAAAAAAAAAAAAAAAAAAAAAAAAAAAAAAAAAAAAAAAAAAAAAAAAAAAAAAAAAAAAAAAAAAAAAAAAAAAAAAAAAAAAAAAAAAAAAAAAAAAAAAAAAAAAAAAAAAAAAAAAAAAAAAAAAAAAAAAAAAAAAAAAAAAAAAAAAAAAAAAAAAAAAAAAAAAAAAAAAAAAAAAAAAAAAAAAAAAAAAAAAAAAAAAAAAAAAAAAAAAAAAAAAAAAAAAAAAAAAAAAAAAAAAAAAAAAAAAAAAAAAAAAAAAAAAAAAAAAAAAAAAAAAAAAAAAAAAAAAAAAAAAAAAAAAAAAAAAAAAAAAAAAAAAAAAAAAAAAAAAAAAAAAAAAAAAAAAAAAAAAAAAAAAAAAAAAAAAAAAAAAAAAAAAAAAAAAAAAAAAAAAAAAAAAAAAAAAAAAAAAAAAAAAAAAAAAAAAAAAAAAAAAAAAAAAAAAAAAAAAAAAAAAAAAAAAAAAAAAAAAAAAAAAAAAAAAAAAAAAAAAAAAAAAAAAAAAAAAAAAAAAAAAAAAAAAAAAAAAAAAAAAAAAAAAAAAAAAAAAAAAAAAAAAAAAAAAAAAAAAAAAAAAAAAAAAAAAAAAAAAAAAAAAAAAAAAAAAAAAAAAAAAAAAAAAAAAAAAAAAAAAAAAAAAAAAAAAAAAAAAAAAAAAAAAAAAAAAAAAAAAAAAAAAAAAAAAAAAAAAAAAAAAAAAAAAAAAAAAAAAAAAAAAAAAAAAAAAAAAAAAAAAAAAAAAAAAAAAAAAAAAAAAAAAAAAAAAAAAAAAAAAAAAAAAAAAAAAAAAAAAAAAAAAAAAAAAAAAAAAAAAAAAAAAAAAAAAAAAAAAAAAAAAAAAAAAAAAAAAAAAAAAAAAAAAAAAAAAAAAAAAAAAAAAAAAAAAAAAAAAAAAAAAAAAAAAAAAAAAAAAAAAAAAAAAAAAAAAAAAAAAAAAAAAAAAAAAAAAAAAAAAAAAAAAAAAAAAAAAAAAAAAAAAAAAAAAAAAAAAAAAAAAAAAAAAAAAAAAAAAAAAAAAAAAAAAAAAAAAAAAAAAAAAAAAAAAAAAAAAAAAAAAAAAAAAAAAAAAAAAAAAAAAAAAAAAAAAAAAAAAAAAAAAAAAAAAAAAAAAAAAAAAAAAAAAAAAAAAAAAAAAAAAAAAAAAAAAAAAAAAAAAAAAAAAAAAAAAAAAAAAAAAAAAAAAAAAAAAAAAAAAAAAAAAAAAAAAAAAAAAAAAAAAAAAAAAAAAAAAAAAAAAAAAAAAAAAAAAAAAAAAAAAAAAAAAAAAAAAAAAAAAAAAAAAAAAAAAAAAAAAAAAAAAAAAAAAAAAAAAAAAAAAAAAAAAAAAAAAAAAAAAAAAAAAAAAAAAAAAAAAAAAAAAAAAAAAAAAAAAAAAAAAAAAAAAAAAAAAAAAAAAAAAAAAAAAAAAAAAAAAAAAAAAAAAAAAAAAAAAAAAAAAAAAAAAAAAAAAAAAAAAAAAAAAAAAAAAAAAAAAAAAAAAAAAAAAAAAAAAAAAAAAAAAAAAAAAAAAAAAAAAAAAAAAAAAAAAAAAAAAAAAAAAAAAAAAAAAAAAAAAAAAAAAAAAAAAAAAAAAAAAAAAAAAAAAAAAAAAAAAAAAAAAAAAAAAAAAAAAAAAAAAAAAAAAAAAAAAAAAAAAAAAAAAAAAAAAAAAAAAAAAAAAAAAAAAAAAAAAAAAAAAAAAAAAAAAAAAAAAAAAAAAAAAAAAAAAAAAAAAAAAAAAAAAAAAAAAAAAAAAAAAAAAAAAAAAAAAAAAAAAAAAAAAAAAAAAAAAAAAAAAAAAAAAAAAAAAAAAAAAAAAAAAAAAAAAAAAAAAAAAAAAAAAAAAAAAAAAAAAAAAAAAAAAAAAAAAAAAAAAAAAAAAAAAAAAAAAAAAAAAAAAAAAAAAAAAAAAAAAAAAAAAAAAAAAAAAAAAAAAAAAAAAAAAAAAAAAAAAAAAAAAAAAAAAAAAAAAAAAAAAAAAAAAAAAAAAAAAAAAAAAAAAAAAAAAAAAAAAAAAAAAAAAAAAAAAAAAAAAAAAAAAAAAAAAAAAAAAAAAAAAAAAAAAAAAAAAAAAAAAAAAAAAAAAAAAAAAAAAAAAAAAAAAAAAAAAAAAAAAAAAAAAAAAAAAAAAAAAAAAAAAAAAAAAAAAAAAAAAAAAAAAAAAAAAAAAAAAAAAAAAAAAAAAAAAAAAAAAAAAAAAAAAAAAAAAAAAAAAAAAAAAAAAAAAAAAAAAAAAAAAAAAAAAAAAAAAAAAAAAAAAAAAAAAAAAAAAAAAAAAAAAAAAAAAAAAAAAAAAAAAAAAAAAAAAAAAAAAAAAAAAAAAAAAAAAAAAAAAAAAAAAAAAAAAAAAAAAAAAAAAAAAAAAAAAAAAAAAAAAAAAAAAAAAAAAAAAAAAAAAAAAAAAAAAAAAAAAAAAAAAAAAAAAAAAAAAAAAAAAAAAAAAAAAAAAAAAAAAAAAAAAAAAAAAAAAAAAAAAAAAAAAAAAAAAAAAAAAAAAAAAAAAAAAAAAAAAAAAAAAAAAAAAAAAAAAAAAAAAAAAAAAAAAAAAAAAAAAAAAAAAAAAAAAAAAAAAAAAAAAAAAAAAAAAAAAAAAAAAAAAAAAAAAAAAAAAAAAAAAAAAAAAAAAAAAAAAAAAAAAAAAAAAAAAAAAAAAAAAAAAAAAAAAAAAAAAAAAAAAAAAAAAAAAAAAAAAAAAAAAAAAAAAAAAAAAAAAAAAAAAAAAAAAAAAAAAAAAAAAAAAAAAAAAAAAAAAAAAAAAAAAAAAAAAAAAAAAAAAAAAAAAAAAAAAAAAAAAAAAAAAAAAAAAAAAAAAAAAAAAAAAAAAAAAAAAAAAAAAAAAAAAAAAAAAAAAAAAAAAAAAAAAAAAAAAAAAAAAAAAAAAAAAAAAAAAAAAAAAAAAAAAAAAAAAAAAAAAAAAAAAAAAAAAAAAAAAAAAAAAAAAAAAAAAAAAAAAAAAAAAAAAAAAAAAAAAAAAAAAAAAAAAAAAAAAAAAAAAAAAAAAAAAAAAAAAAAAAAAAAAAAAAAAAAAAAAAAAAAAAAAAAAAAAAAAAAAAAAAAAAAAAAAAAAAAAAAAAAAAAAAAAAAAAAAAAAAAAAAAAAAAAAAAAAAAAAAAAAAAAAAAAAAAAAAAAAAAAAAAAAAAAAAAAAAAAAAAAAAAAAAAAAAAAAAAAAAAAAAAAAAAAAAAAAAAAAAAAAAAAAAAAAAAAAAAAAAAAAAAAAAAAAAAAAAAAAAAAAAAAAAAAAAAAAAAAAAAAAAAAAAAAAAAAAAAAAAAAAAAAAAAAAAAAAAAAAAAAAAAAAAAAAAAAAAAAAAAAAAAAAAAAAAAAAAAAAAAAAAAAAAAAAAAAAAAAAAAAAAAAAAAAAAAAAAAAAAAAAAAAAAAAAAAAAAAAAAAAAAAAAAAAAAAAAAAAAAAAAAAAAAAAAAAAAAAAAAAAAAAAAAAAAAAAAAAAAAAAAAAAAAAAAAAAAAAAAAAAAAAAAAAAAAAAAAAAAAAAAAAAAAAAAAAAAAAAAAAAAAAAAAAAAAAAAAAAAAAAAAAAAAAAAAAAAAAAAAAAAAAAAAAAAAAAAAAAAAAAAAAAAAAAAAAAAAAAAAAAAAAAAAAAAAAAAAAAAAAAAAAAAAAAAAAAAAAAAAAAAAAAAAAAAAAAAAAAAAAAAAAAAAAAAAAAAAAAAAAAAAAAAAAAAAAAAAAAAAAAAAAAAAAAAAAAAAAAAAAAAAAAAAAAAAAAAAAAAAAAAAAAAAAAAAAAAAAAAAAAAAAAAAAAAAAAAAAAAAAPZYQLjvE519WTDTtRhnEFpyEvwHAMPPG+9q9QAVRC+ztodqm9YjVKqUrncVaGh3Eceqp9zTCewqkHNomGAkJQpgXWY=</c2pa:manifest></metadata><title>Uppsala Konsert &amp; Kongress</title>
<defs><clipPath id="upper"><path d="M80 60H520V130H610V60H700V228H80Z"/></clipPath></defs>
<g stroke-linejoin="round" stroke-linecap="round">
<rect x="80" y="268" width="620" height="157" fill="#eef2f6"/>
<rect x="80" y="268" width="13" height="157" fill="#c6d1db"/>
<rect x="86" y="324" width="5" height="44" fill="#2f6486"/>
<rect x="86" y="324" width="2" height="44" fill="#6fa6c4"/>
<rect x="96" y="280" width="5" height="93" fill="#2f6486"/>
<rect x="96" y="280" width="2" height="93" fill="#6fa6c4"/>
<rect x="106" y="268" width="13" height="157" fill="#c6d1db"/>
<rect x="132" y="268" width="13" height="157" fill="#c6d1db"/>
<rect x="136" y="329" width="5" height="36" fill="#2f6486"/>
<rect x="136" y="329" width="2" height="36" fill="#6fa6c4"/>
<rect x="149" y="344" width="5" height="36" fill="#2f6486"/>
<rect x="149" y="344" width="2" height="36" fill="#6fa6c4"/>
<rect x="158" y="268" width="13" height="157" fill="#c6d1db"/>
<rect x="164" y="302" width="5" height="40" fill="#2f6486"/>
<rect x="164" y="302" width="2" height="40" fill="#6fa6c4"/>
<rect x="184" y="268" width="13" height="157" fill="#c6d1db"/>
<rect x="210" y="268" width="13" height="157" fill="#c6d1db"/>
<rect x="215" y="279" width="5" height="53" fill="#2f6486"/>
<rect x="215" y="279" width="2" height="53" fill="#6fa6c4"/>
<rect x="236" y="268" width="13" height="157" fill="#c6d1db"/>
<rect x="237" y="343" width="5" height="43" fill="#2f6486"/>
<rect x="237" y="343" width="2" height="43" fill="#6fa6c4"/>
<rect x="262" y="268" width="13" height="157" fill="#c6d1db"/>
<rect x="288" y="268" width="13" height="157" fill="#c6d1db"/>
<rect x="289" y="321" width="5" height="49" fill="#2f6486"/>
<rect x="289" y="321" width="2" height="49" fill="#6fa6c4"/>
<rect x="302" y="346" width="5" height="33" fill="#2f6486"/>
<rect x="302" y="346" width="2" height="33" fill="#6fa6c4"/>
<rect x="314" y="268" width="13" height="157" fill="#c6d1db"/>
<rect x="334" y="301" width="5" height="93" fill="#2f6486"/>
<rect x="334" y="301" width="2" height="93" fill="#6fa6c4"/>
<rect x="340" y="268" width="13" height="157" fill="#c6d1db"/>
<rect x="343" y="297" width="5" height="83" fill="#2f6486"/>
<rect x="343" y="297" width="2" height="83" fill="#6fa6c4"/>
<rect x="360" y="363" width="5" height="48" fill="#2f6486"/>
<rect x="360" y="363" width="2" height="48" fill="#6fa6c4"/>
<rect x="366" y="268" width="13" height="157" fill="#c6d1db"/>
<rect x="370" y="341" width="5" height="63" fill="#2f6486"/>
<rect x="370" y="341" width="2" height="63" fill="#6fa6c4"/>
<rect x="392" y="268" width="13" height="157" fill="#c6d1db"/>
<rect x="410" y="289" width="5" height="34" fill="#2f6486"/>
<rect x="410" y="289" width="2" height="34" fill="#6fa6c4"/>
<rect x="418" y="268" width="13" height="157" fill="#c6d1db"/>
<rect x="422" y="293" width="5" height="68" fill="#2f6486"/>
<rect x="422" y="293" width="2" height="68" fill="#6fa6c4"/>
<rect x="436" y="371" width="5" height="34" fill="#2f6486"/>
<rect x="436" y="371" width="2" height="34" fill="#6fa6c4"/>
<rect x="444" y="268" width="13" height="157" fill="#c6d1db"/>
<rect x="470" y="268" width="13" height="157" fill="#c6d1db"/>
<rect x="474" y="350" width="5" height="69" fill="#2f6486"/>
<rect x="474" y="350" width="2" height="69" fill="#6fa6c4"/>
<rect x="496" y="268" width="13" height="157" fill="#c6d1db"/>
<rect x="500" y="308" width="5" height="36" fill="#2f6486"/>
<rect x="500" y="308" width="2" height="36" fill="#6fa6c4"/>
<rect x="522" y="268" width="13" height="157" fill="#c6d1db"/>
<rect x="528" y="347" width="5" height="64" fill="#2f6486"/>
<rect x="528" y="347" width="2" height="64" fill="#6fa6c4"/>
<rect x="548" y="268" width="13" height="157" fill="#c6d1db"/>
<rect x="549" y="318" width="5" height="74" fill="#2f6486"/>
<rect x="549" y="318" width="2" height="74" fill="#6fa6c4"/>
<rect x="574" y="268" width="13" height="157" fill="#c6d1db"/>
<rect x="575" y="337" width="5" height="39" fill="#2f6486"/>
<rect x="575" y="337" width="2" height="39" fill="#6fa6c4"/>
<rect x="593" y="290" width="5" height="61" fill="#2f6486"/>
<rect x="593" y="290" width="2" height="61" fill="#6fa6c4"/>
<rect x="600" y="268" width="13" height="157" fill="#c6d1db"/>
<rect x="601" y="337" width="5" height="75" fill="#2f6486"/>
<rect x="601" y="337" width="2" height="75" fill="#6fa6c4"/>
<rect x="615" y="309" width="5" height="76" fill="#2f6486"/>
<rect x="615" y="309" width="2" height="76" fill="#6fa6c4"/>
<rect x="626" y="268" width="13" height="157" fill="#c6d1db"/>
<rect x="652" y="268" width="13" height="157" fill="#c6d1db"/>
<rect x="658" y="319" width="5" height="78" fill="#2f6486"/>
<rect x="658" y="319" width="2" height="78" fill="#6fa6c4"/>
<rect x="678" y="268" width="13" height="157" fill="#c6d1db"/>
<rect x="692" y="293" width="5" height="47" fill="#2f6486"/>
<rect x="692" y="293" width="2" height="47" fill="#6fa6c4"/>
<rect x="80" y="268" width="620" height="157" fill="none" stroke="#3a4552" stroke-width="4"/>
<rect x="80" y="228" width="620" height="40" fill="#2a5a78"/>
<rect x="80" y="228" width="620" height="6" fill="#4f88a8"/>
<line x1="80" y1="234" x2="80" y2="268" stroke="#1d3f55" stroke-width="3"/>
<line x1="116" y1="234" x2="116" y2="268" stroke="#1d3f55" stroke-width="3"/>
<line x1="152" y1="234" x2="152" y2="268" stroke="#1d3f55" stroke-width="3"/>
<line x1="188" y1="234" x2="188" y2="268" stroke="#1d3f55" stroke-width="3"/>
<line x1="224" y1="234" x2="224" y2="268" stroke="#1d3f55" stroke-width="3"/>
<line x1="260" y1="234" x2="260" y2="268" stroke="#1d3f55" stroke-width="3"/>
<line x1="296" y1="234" x2="296" y2="268" stroke="#1d3f55" stroke-width="3"/>
<line x1="332" y1="234" x2="332" y2="268" stroke="#1d3f55" stroke-width="3"/>
<line x1="368" y1="234" x2="368" y2="268" stroke="#1d3f55" stroke-width="3"/>
<line x1="404" y1="234" x2="404" y2="268" stroke="#1d3f55" stroke-width="3"/>
<line x1="440" y1="234" x2="440" y2="268" stroke="#1d3f55" stroke-width="3"/>
<line x1="476" y1="234" x2="476" y2="268" stroke="#1d3f55" stroke-width="3"/>
<line x1="512" y1="234" x2="512" y2="268" stroke="#1d3f55" stroke-width="3"/>
<line x1="548" y1="234" x2="548" y2="268" stroke="#1d3f55" stroke-width="3"/>
<line x1="584" y1="234" x2="584" y2="268" stroke="#1d3f55" stroke-width="3"/>
<line x1="620" y1="234" x2="620" y2="268" stroke="#1d3f55" stroke-width="3"/>
<line x1="656" y1="234" x2="656" y2="268" stroke="#1d3f55" stroke-width="3"/>
<line x1="692" y1="234" x2="692" y2="268" stroke="#1d3f55" stroke-width="3"/>
<rect x="80" y="228" width="620" height="40" fill="none" stroke="#3a4552" stroke-width="4"/>
<g clip-path="url(#upper)">
<rect x="80" y="60" width="620" height="168" fill="#eef2f6"/>
<rect x="80" y="60" width="13" height="168" fill="#c6d1db"/>
<rect x="96" y="77" width="5" height="100" fill="#2f6486"/>
<rect x="96" y="77" width="2" height="100" fill="#6fa6c4"/>
<rect x="106" y="60" width="13" height="168" fill="#c6d1db"/>
<rect x="111" y="119" width="5" height="43" fill="#2f6486"/>
<rect x="111" y="119" width="2" height="43" fill="#6fa6c4"/>
<rect x="121" y="86" width="5" height="97" fill="#2f6486"/>
<rect x="121" y="86" width="2" height="97" fill="#6fa6c4"/>
<rect x="132" y="60" width="13" height="168" fill="#c6d1db"/>
<rect x="151" y="107" width="5" height="104" fill="#2f6486"/>
<rect x="151" y="107" width="2" height="104" fill="#6fa6c4"/>
<rect x="158" y="60" width="13" height="168" fill="#c6d1db"/>
<rect x="175" y="91" width="5" height="96" fill="#2f6486"/>
<rect x="175" y="91" width="2" height="96" fill="#6fa6c4"/>
<rect x="184" y="60" width="13" height="168" fill="#c6d1db"/>
<rect x="190" y="127" width="5" height="38" fill="#2f6486"/>
<rect x="190" y="127" width="2" height="38" fill="#6fa6c4"/>
<rect x="199" y="74" width="5" height="49" fill="#2f6486"/>
<rect x="199" y="74" width="2" height="49" fill="#6fa6c4"/>
<rect x="210" y="60" width="13" height="168" fill="#c6d1db"/>
<rect x="215" y="109" width="5" height="39" fill="#2f6486"/>
<rect x="215" y="109" width="2" height="39" fill="#6fa6c4"/>
<rect x="228" y="104" width="5" height="25" fill="#2f6486"/>
<rect x="228" y="104" width="2" height="25" fill="#6fa6c4"/>
<rect x="236" y="60" width="13" height="168" fill="#c6d1db"/>
<rect x="237" y="144" width="5" height="71" fill="#2f6486"/>
<rect x="237" y="144" width="2" height="71" fill="#6fa6c4"/>
<rect x="253" y="144" width="5" height="51" fill="#2f6486"/>
<rect x="253" y="144" width="2" height="51" fill="#6fa6c4"/>
<rect x="262" y="60" width="13" height="168" fill="#c6d1db"/>
<rect x="267" y="110" width="5" height="57" fill="#2f6486"/>
<rect x="267" y="110" width="2" height="57" fill="#6fa6c4"/>
<rect x="282" y="80" width="5" height="40" fill="#2f6486"/>
<rect x="282" y="80" width="2" height="40" fill="#6fa6c4"/>
<rect x="288" y="60" width="13" height="168" fill="#c6d1db"/>
<rect x="292" y="127" width="5" height="84" fill="#2f6486"/>
<rect x="292" y="127" width="2" height="84" fill="#6fa6c4"/>
<rect x="307" y="79" width="5" height="43" fill="#2f6486"/>
<rect x="307" y="79" width="2" height="43" fill="#6fa6c4"/>
<rect x="314" y="60" width="13" height="168" fill="#c6d1db"/>
<rect x="321" y="127" width="5" height="58" fill="#2f6486"/>
<rect x="321" y="127" width="2" height="58" fill="#6fa6c4"/>
<rect x="340" y="60" width="13" height="168" fill="#c6d1db"/>
<rect x="343" y="133" width="5" height="51" fill="#2f6486"/>
<rect x="343" y="133" width="2" height="51" fill="#6fa6c4"/>
<rect x="354" y="124" width="5" height="94" fill="#2f6486"/>
<rect x="354" y="124" width="2" height="94" fill="#6fa6c4"/>
<rect x="366" y="60" width="13" height="168" fill="#c6d1db"/>
<rect x="385" y="71" width="5" height="107" fill="#2f6486"/>
<rect x="385" y="71" width="2" height="107" fill="#6fa6c4"/>
<rect x="392" y="60" width="13" height="168" fill="#c6d1db"/>
<rect x="412" y="111" width="5" height="46" fill="#2f6486"/>
<rect x="412" y="111" width="2" height="46" fill="#6fa6c4"/>
<rect x="418" y="60" width="13" height="168" fill="#c6d1db"/>
<rect x="423" y="115" width="5" height="94" fill="#2f6486"/>
<rect x="423" y="115" width="2" height="94" fill="#6fa6c4"/>
<rect x="438" y="144" width="5" height="53" fill="#2f6486"/>
<rect x="438" y="144" width="2" height="53" fill="#6fa6c4"/>
<rect x="444" y="60" width="13" height="168" fill="#c6d1db"/>
<rect x="470" y="60" width="13" height="168" fill="#c6d1db"/>
<rect x="476" y="117" width="5" height="55" fill="#2f6486"/>
<rect x="476" y="117" width="2" height="55" fill="#6fa6c4"/>
<rect x="496" y="60" width="13" height="168" fill="#c6d1db"/>
<rect x="502" y="111" width="5" height="88" fill="#2f6486"/>
<rect x="502" y="111" width="2" height="88" fill="#6fa6c4"/>
<rect x="513" y="137" width="5" height="28" fill="#2f6486"/>
<rect x="513" y="137" width="2" height="28" fill="#6fa6c4"/>
<rect x="522" y="60" width="13" height="168" fill="#c6d1db"/>
<rect x="526" y="88" width="5" height="102" fill="#2f6486"/>
<rect x="526" y="88" width="2" height="102" fill="#6fa6c4"/>
<rect x="548" y="60" width="13" height="168" fill="#c6d1db"/>
<rect x="563" y="76" width="5" height="71" fill="#2f6486"/>
<rect x="563" y="76" width="2" height="71" fill="#6fa6c4"/>
<rect x="574" y="60" width="13" height="168" fill="#c6d1db"/>
<rect x="577" y="91" width="5" height="85" fill="#2f6486"/>
<rect x="577" y="91" width="2" height="85" fill="#6fa6c4"/>
<rect x="594" y="105" width="5" height="104" fill="#2f6486"/>
<rect x="594" y="105" width="2" height="104" fill="#6fa6c4"/>
<rect x="600" y="60" width="13" height="168" fill="#c6d1db"/>
<rect x="607" y="88" width="5" height="108" fill="#2f6486"/>
<rect x="607" y="88" width="2" height="108" fill="#6fa6c4"/>
<rect x="626" y="60" width="13" height="168" fill="#c6d1db"/>
<rect x="643" y="91" width="5" height="74" fill="#2f6486"/>
<rect x="643" y="91" width="2" height="74" fill="#6fa6c4"/>
<rect x="652" y="60" width="13" height="168" fill="#c6d1db"/>
<rect x="666" y="87" width="5" height="106" fill="#2f6486"/>
<rect x="666" y="87" width="2" height="106" fill="#6fa6c4"/>
<rect x="678" y="60" width="13" height="168" fill="#c6d1db"/>
</g>
<path d="M80 228V60H520V130H610V60H700V228" fill="none" stroke="#3a4552" stroke-width="4"/>
<path d="M80 425H700" stroke="#3a4552" stroke-width="6"/>
</g></svg>