<svg xmlns="http://www.w3.org/2000/svg" fill="none" viewBox="0 0 280 183"><g filter="url(#a)"><path fill="url(#b)" d="M122.312 91.5 77.25 117.25 122.312 143l45.063-25.75z"/><path fill="url(#c)" d="M122.312 40 77.25 65.75v51.5l45.062-25.75z"/><path fill="url(#d)" d="M167.375 117.25v-51.5L122.312 40v51.5z"/></g><circle cx="122.5" cy="91.5" r="25.5" fill="url(#e)"/><path fill="#fff" d="M55.746 103.84q-2.4 0-4.348-1.234-1.934-1.249-3.072-3.663Q47.2 96.516 47.2 92.99q0-3.62 1.166-6.02 1.165-2.415 3.1-3.608a7.94 7.94 0 0 1 4.266-1.207q1.77 0 2.949.603 1.193.59 1.92 1.482.741.877 1.125 1.728h.178V75.406h5.83v28.091h-5.761v-3.374h-.247a7.5 7.5 0 0 1-1.166 1.742q-.741.85-1.934 1.413-1.18.562-2.88.562m1.852-4.65q1.413 0 2.387-.768.987-.782 1.508-2.18.535-1.4.535-3.279t-.52-3.264-1.51-2.14-2.4-.754q-1.44 0-2.428.781-.987.783-1.495 2.168-.507 1.385-.507 3.21 0 1.837.507 3.25.522 1.4 1.495 2.194.988.782 2.428.782M34.5 103.909q-3.251 0-5.596-1.317-2.333-1.33-3.594-3.758-1.262-2.442-1.262-5.775 0-3.251 1.262-5.706 1.261-2.455 3.553-3.827 2.304-1.371 5.404-1.371 2.084 0 3.881.672a8.6 8.6 0 0 1 3.155 1.989q1.358 1.33 2.113 3.346.753 2.004.754 4.691v1.605H26.38v-3.62h12.29q0-1.262-.549-2.237a3.93 3.93 0 0 0-1.523-1.522q-.96-.563-2.235-.563-1.33 0-2.36.618a4.33 4.33 0 0 0-1.59 1.632 4.6 4.6 0 0 0-.59 2.263v3.443q0 1.563.576 2.702a4.2 4.2 0 0 0 1.66 1.756q1.07.617 2.537.617.975 0 1.783-.274a3.7 3.7 0 0 0 1.385-.823 3.6 3.6 0 0 0 .878-1.345l5.404.357a7.4 7.4 0 0 1-1.687 3.402q-1.262 1.44-3.264 2.249-1.99.796-4.595.796M0 103.497v-28.09h11.083q3.182 0 5.431 1.138 2.265 1.125 3.443 3.196 1.194 2.057 1.194 4.841 0 2.798-1.208 4.815-1.206 2.002-3.497 3.072-2.277 1.07-5.514 1.07h-7.42v-4.773h6.46q1.701 0 2.825-.467 1.125-.466 1.674-1.399.562-.932.562-2.318 0-1.398-.562-2.359-.549-.96-1.687-1.454-1.125-.507-2.84-.507H5.94v23.235zm15.17-12.783 6.982 12.783h-6.557l-6.83-12.783zm234.136 12.783V82.429h5.568v3.717h.247q.659-1.851 2.195-2.921t3.676-1.07q2.167 0 3.69 1.083 1.522 1.07 2.03 2.908h.219q.645-1.81 2.332-2.894 1.7-1.097 4.019-1.097 2.949 0 4.787 1.879 1.851 1.865 1.851 5.294v14.169h-5.829V90.48q0-1.755-.933-2.633t-2.332-.878q-1.59 0-2.482 1.015-.892 1.002-.892 2.647v12.866h-5.665v-13.14q0-1.55-.891-2.469-.878-.92-2.318-.919a3.2 3.2 0 0 0-1.756.494q-.768.48-1.221 1.358-.452.863-.452 2.03v12.646zm-14.169.412q-3.196 0-5.528-1.358-2.318-1.372-3.58-3.813-1.262-2.456-1.262-5.693 0-3.264 1.262-5.706 1.262-2.454 3.58-3.813 2.332-1.371 5.528-1.371t5.514 1.371q2.331 1.359 3.593 3.813 1.263 2.442 1.262 5.706 0 3.237-1.262 5.693-1.262 2.44-3.593 3.813-2.319 1.358-5.514 1.358m.027-4.527q1.455 0 2.428-.823.973-.836 1.468-2.277.507-1.44.507-3.278t-.507-3.278q-.495-1.44-1.468-2.277t-2.428-.837q-1.467 0-2.469.837-.987.837-1.495 2.277-.494 1.44-.494 3.278t.494 3.278q.508 1.44 1.495 2.277 1.002.823 2.469.823m-23.715 4.527q-3.196 0-5.528-1.358-2.317-1.372-3.58-3.813-1.262-2.456-1.262-5.693 0-3.264 1.262-5.706 1.263-2.454 3.58-3.813 2.332-1.371 5.528-1.371t5.514 1.371q2.331 1.359 3.593 3.813 1.263 2.442 1.262 5.706 0 3.237-1.262 5.693-1.262 2.44-3.593 3.813-2.319 1.358-5.514 1.358m.027-4.527q1.455 0 2.428-.823.974-.836 1.468-2.277.507-1.44.507-3.278t-.507-3.278q-.494-1.44-1.468-2.277-.973-.837-2.428-.837-1.467 0-2.469.837-.987.837-1.495 2.277-.494 1.44-.494 3.278t.494 3.278q.508 1.44 1.495 2.277 1.002.823 2.469.823m-34.445 4.115v-28.09h11.083q3.182 0 5.432 1.138 2.263 1.125 3.442 3.196 1.194 2.057 1.194 4.841 0 2.798-1.207 4.815-1.208 2.002-3.498 3.072-2.277 1.07-5.514 1.07h-7.42v-4.773h6.46q1.701 0 2.826-.467 1.124-.466 1.673-1.399.562-.932.562-2.318 0-1.398-.562-2.359-.549-.96-1.687-1.454-1.125-.507-2.839-.507h-4.006v23.235zm15.17-12.783 6.982 12.783h-6.556l-6.831-12.783z"/><defs><linearGradient id="b" x1="122.312" x2="122.312" y1="91.5" y2="143" gradientUnits="userSpaceOnUse"><stop stop-color="red"/><stop offset="1"/></linearGradient><linearGradient id="c" x1="122.312" x2="77.25" y1="40" y2="117.25" gradientUnits="userSpaceOnUse"><stop stop-color="red"/><stop offset="1"/></linearGradient><linearGradient id="d" x1="144.844" x2="144.844" y1="40" y2="117.25" gradientUnits="userSpaceOnUse"><stop stop-color="red"/><stop offset="1"/></linearGradient><radialGradient id="e" cx="0" cy="0" r="1" gradientTransform="rotate(90 23.469 99.031)scale(41.438)" gradientUnits="userSpaceOnUse"><stop stop-color="red"/><stop offset="1"/></radialGradient><filter id="a" width="170.125" height="183" x="37.25" y="0" color-interpolation-filters="sRGB" filterUnits="userSpaceOnUse"><feFlood flood-opacity="0" result="BackgroundImageFix"/><feColorMatrix in="SourceAlpha" result="hardAlpha" values="0 0 0 0 0 0 0 0 0 0 0 0 0 0 0 0 0 0 127 0"/><feOffset/><feGaussianBlur stdDeviation="20"/><feComposite in2="hardAlpha" operator="out"/><feColorMatrix values="0 0 0 0 1 0 0 0 0 1 0 0 0 0 1 0 0 0 0.1 0"/><feBlend in2="BackgroundImageFix" result="effect1_dropShadow_12_44027"/><feBlend in="SourceGraphic" in2="effect1_dropShadow_12_44027" result="shape"/></filter></defs></svg>