<svg xmlns="http://www.w3.org/2000/svg" fill="none" viewBox="0 0 180 100"><mask id="a" width="180" height="100" x="0" y="0" maskUnits="userSpaceOnUse" style="mask-type:luminance"><path fill="#fff" d="M180 0H0v100h180z"/></mask><g mask="url(#a)"><path fill="#bd8b5e" d="M181.712 69.598H-1.691v32.669h183.403z"/><path fill="#635049" d="M181.888 102.419H-1.867V69.446h183.755zm-183.404-.303h183.053V69.749H-1.516z"/><path fill="#bd8b5e" d="M18.245 73h106.418l2.647 5.278h34.569c18.121 0 19.833 18.933 19.833 18.933V69.598H-1.691V95.45S-2.258 73 18.245 73" opacity=".4" style="mix-blend-mode:multiply"/><path fill="#82593b" d="M-1.867 102.445V69.419h183.755v33.026zm.352-.356h183.05V69.776H-1.515z"/><path fill="#82593b" d="M-1.691 96.981v-.358h183.403v.358zm0-4.991v-.355h183.403v.355zm0-4.99v-.355h183.403V87zm0-4.988v-.358h183.403v.358zm0-4.99v-.356h183.403v.356z"/><path fill="#d1c0b8" d="M181.888-1.989H-2.08V69.52h183.968z"/><path fill="#cb966a" d="M181.888 66.327H-1.574v3.478h183.462z"/><path fill="#cb966a" d="M181.888 66.327H-1.574v.683h183.462z" opacity=".5" style="mix-blend-mode:screen"/><path fill="#cb966a" d="M181.888 68.78H-1.574v1.025h183.462z" opacity=".4" style="mix-blend-mode:multiply"/><path fill="#e2d3cb" d="M60.908 4.049 60.6 3.63l-.03-.013a.8.8 0 0 0-.568-.246H16.947c-.354 0-.662.252-.817.625l-.142.437.004 60.482.003.217.033.101.007.033.065.273.297.365.17.086.16.085h43.357c.509 0 .923-.52.923-1.16V4.635l-.002-.109.004-.104z" opacity=".4" style="mix-blend-mode:multiply"/><path fill="#ebcfb2" d="M20.663 6.634h-.986v57.408h40.086V6.634z" opacity=".7" style="mix-blend-mode:multiply"/><path fill="#bfe7f8" d="M56.709 7.862H20.245v54.133h36.464z" opacity=".8"/><path fill="url(#b)" d="m36.345 7.812-16.1 19.008v8.417L43.47 7.812z" opacity=".5" style="mix-blend-mode:screen"/><path fill="url(#c)" d="M56.703 13.532 20.245 56.575v5.42h8.582L56.703 29.09z" opacity=".5" style="mix-blend-mode:screen"/><path fill="url(#d)" d="M58.053 19.034v-.894H46.897V7.764h-1.141V18.14H33.122V7.764h-1.144V18.14h-12.16v.894h12.16v10.232h-12.16v.891h12.16v10.23h-12.16v.893h12.16v10.233h-12.16v.894h12.16V62.68h1.144V52.407h12.634V62.68h1.14V52.407h11.157v-.894H46.897V41.28h11.156v-.893H46.897v-10.23h11.156v-.891H46.897V19.034zM45.756 51.513H33.122V41.28h12.634zm0-11.126H33.122v-10.23h12.634zm0-11.121H33.122V19.034h12.634z" style="mix-blend-mode:multiply"/><path fill="#445d72" d="M32.255 39.982h.344V29.754h12.627v-.27H32.255zm.345.896h12.626v-.272H32.255v10.499h.344zm-1.484-22.522H19.304v.272h11.812zm1.139 10.505h.344V18.628h12.627v-.272H32.255zm-.814 11.745H19.304v.272h12.137zm0-11.121H19.304v.27h12.137zM46.382 7.356h-.347v10.379h.347zm10.806 22.129H46.035V39.98h.347V29.755h11.15v-.894h-.344zm0-11.75v.62H46.035v10.506h.347V18.63h11.15v-.894zm0 22.871H46.035v10.499h.347V40.878h11.15v-.897h-.344zM31.464 51.73h-12.16v.266h12.16zm25.724 0H46.035v10.277h-.791v.27h1.138V51.995h11.15v-.891h-.344zM32.6 7.356h-.345v10.379h.344zM45.244 51.73h-12.99v10.277h-.79v.27h1.135V51.995h12.645z" opacity=".6" style="mix-blend-mode:multiply"/><path fill="#fff" d="M56.709 7.862v54.133H20.245V7.862zm3.415-3.688H16.837V65.36h43.287z"/><path fill="#445d72" d="M56.709 7.862v54.133H20.245V7.862zm.943-.306H19.304v55.03h38.348z" opacity=".6" style="mix-blend-mode:multiply"/><path fill="#fff" d="M57.533 18.629v-.894h-11.15V7.356h-1.14v10.379H32.6V7.356h-1.135v10.379h-12.16v.893h12.16v10.233h-12.16v.894h12.16V39.98h-12.16v.897h12.16v10.227h-12.16v.89h12.16v10.281H32.6v-10.28h12.644v10.28h1.138v-10.28h11.15v-.891h-11.15V40.878h11.15v-.897h-11.15V29.755h11.15v-.894h-11.15V18.628zm-12.29 32.476H32.6V40.878h12.645zm0-11.124H32.6V29.755h12.645zm0-11.12H32.6V18.628h12.645z"/><path fill="#e2d3cb" d="m102.655 4.049-.308-.419-.03-.013a.8.8 0 0 0-.567-.246H58.694c-.354 0-.662.252-.816.625l-.142.437.004 60.482.002.217.033.101.008.033.064.273.298.365.17.086.16.085h43.357c.508 0 .922-.52.922-1.16V4.635l-.001-.109.004-.104z" opacity=".4" style="mix-blend-mode:multiply"/><path fill="#ebcfb2" d="M62.41 6.634h-.986v57.408h40.088V6.634z" opacity=".7" style="mix-blend-mode:multiply"/><path fill="#bfe7f8" d="M98.457 7.862H61.993v54.133h36.464z" opacity=".8"/><path fill="url(#e)" d="m78.092 7.812-16.1 19.008v8.417L85.22 7.812z" opacity=".5" style="mix-blend-mode:screen"/><path fill="url(#f)" d="M98.451 13.532 61.993 56.575v5.42h8.582L98.45 29.09z" opacity=".5" style="mix-blend-mode:screen"/><path fill="url(#g)" d="M99.8 19.034v-.894H88.644V7.764h-1.14V18.14H74.87V7.764h-1.144V18.14h-12.16v.894h12.16v10.232h-12.16v.891h12.16v10.23h-12.16v.893h12.16v10.233h-12.16v.894h12.16V62.68h1.144V52.407h12.633V62.68h1.141V52.407H99.8v-.894H88.644V41.28H99.8v-.893H88.644v-10.23H99.8v-.891H88.644V19.034zM87.503 51.513H74.87V41.28h12.633zm0-11.126H74.87v-10.23h12.633zm0-11.121H74.87V19.034h12.633z" style="mix-blend-mode:multiply"/><path fill="#445d72" d="M74.003 39.982h.344V29.754h12.626v-.27h-12.97zm.344.896h12.626v-.272h-12.97v10.499h.344zm-1.483-22.522H61.052v.272h11.812zm1.139 10.505h.344V18.628h12.626v-.272h-12.97zm-.814 11.745H61.052v.272h12.137zm0-11.121H61.052v.27h12.137zM88.13 7.356h-.348v10.379h.348zm10.805 22.129H87.782V39.98h.348V29.755h11.15v-.894h-.345zm0-11.75v.62H87.782v10.506h.348V18.63h11.15v-.894zm0 22.871H87.782v10.499h.348V40.878h11.15v-.897h-.345zM73.211 51.73h-12.16v.266h12.16zm25.724 0H87.782v10.277h-.79v.27h1.138V51.995h11.15v-.891h-.345zM74.347 7.356h-.344v10.379h.344zM86.991 51.73H74.003v10.277h-.792v.27h1.136V51.995h12.644z" opacity=".6" style="mix-blend-mode:multiply"/><path fill="#fff" d="M98.457 7.862v54.133H61.993V7.862zm3.414-3.688H58.585V65.36h43.286z"/><path fill="#445d72" d="M98.457 7.862v54.133H61.993V7.862zm.942-.306H61.052v55.03h38.347z" opacity=".6" style="mix-blend-mode:multiply"/><path fill="#fff" d="M99.28 18.629v-.894H88.13V7.356h-1.14v10.379H74.347V7.356h-1.136v10.379h-12.16v.893h12.16v10.233h-12.16v.894h12.16V39.98h-12.16v.897h12.16v10.227h-12.16v.89h12.16v10.281h1.136v-10.28h12.644v10.28h1.139v-10.28h11.15v-.891H88.13V40.878h11.15v-.897H88.13V29.755h11.15v-.894H88.13V18.628zM86.991 51.105H74.347V40.878h12.644zm0-11.124H74.347V29.755h12.644zm0-11.12H74.347V18.628h12.644zM39.192 3.737c-.072-.254-.14-.685-.14-1.286q0-.27.018-.493h-.278a8 8 0 0 0-.018.493c0 .147.01 1.198.262 1.635-.018-.14.028-.282.156-.349"/><path fill="#cbccce" d="M39.036 4.156a.07.07 0 0 1-.06-.035c-.258-.447-.272-1.47-.272-1.67 0-.038.001-.241.019-.498a.07.07 0 0 1 .07-.064h.277a.07.07 0 0 1 .07.074 7 7 0 0 0-.018.488c0 .683.086 1.087.137 1.267a.07.07 0 0 1-.035.081c-.09.047-.135.151-.119.278a.07.07 0 0 1-.069.079m-.179-2.128c-.013.22-.013.389-.013.423 0 .102.005.893.161 1.385a.36.36 0 0 1 .106-.13c-.053-.207-.128-.612-.128-1.255q0-.21.013-.423z"/><path fill="#fff" d="M33.256 3.737c-.072-.254-.14-.685-.14-1.286q.002-.27.018-.493h-.277a8 8 0 0 0-.018.493c0 .147.009 1.198.262 1.635-.018-.14.027-.282.155-.349"/><path fill="#cbccce" d="M33.1 4.156a.07.07 0 0 1-.06-.035c-.258-.447-.271-1.47-.271-1.67 0-.038 0-.241.018-.498a.07.07 0 0 1 .07-.064h.277a.07.07 0 0 1 .07.074 7 7 0 0 0-.018.488c0 .683.086 1.087.137 1.267a.07.07 0 0 1-.034.081c-.091.047-.136.151-.12.278a.07.07 0 0 1-.068.079m-.178-2.128a8 8 0 0 0-.014.423c0 .102.005.893.162 1.385a.36.36 0 0 1 .106-.13c-.054-.207-.129-.612-.129-1.255q0-.21.013-.423z"/><path fill="#fff" d="M27.599 3.737c-.072-.254-.14-.685-.14-1.286q0-.27.018-.493h-.278a8 8 0 0 0-.018.493c0 .147.01 1.198.262 1.635-.018-.14.028-.282.156-.349"/><path fill="#cbccce" d="M27.443 4.156a.07.07 0 0 1-.06-.035c-.258-.447-.271-1.47-.271-1.67 0-.038 0-.241.018-.498a.07.07 0 0 1 .07-.064h.277a.07.07 0 0 1 .07.074 7 7 0 0 0-.018.488c0 .683.086 1.087.137 1.267a.07.07 0 0 1-.035.081c-.09.047-.135.151-.119.278a.07.07 0 0 1-.069.079m-.178-2.128a8 8 0 0 0-.014.423c0 .102.005.893.161 1.385a.36.36 0 0 1 .106-.13c-.053-.207-.128-.612-.128-1.255q0-.21.013-.423z"/><path fill="#fff" d="M22.684 3.737c-.073-.254-.14-.685-.14-1.286q.001-.27.017-.493h-.277a8 8 0 0 0-.018.493c0 .147.01 1.198.262 1.635-.018-.14.027-.282.156-.349"/><path fill="#cbccce" d="M22.528 4.156a.07.07 0 0 1-.06-.035c-.259-.447-.272-1.47-.272-1.67 0-.038.001-.241.018-.498a.07.07 0 0 1 .07-.064h.277a.07.07 0 0 1 .07.074 7 7 0 0 0-.018.488c0 .683.086 1.087.137 1.267a.07.07 0 0 1-.034.081c-.091.047-.136.151-.12.278a.07.07 0 0 1-.068.079m-.179-2.128c-.013.22-.014.389-.014.423 0 .102.005.893.162 1.385a.36.36 0 0 1 .106-.13c-.053-.207-.129-.612-.129-1.255q0-.21.013-.423z"/><path fill="#fff" d="M17.166 3.737c-.073-.254-.14-.685-.14-1.286q.001-.27.017-.493h-.277a8 8 0 0 0-.018.493c0 .147.009 1.198.262 1.635-.018-.14.027-.282.155-.349"/><path fill="#cbccce" d="M17.01 4.156a.07.07 0 0 1-.06-.035c-.259-.447-.272-1.47-.272-1.67 0-.038 0-.241.018-.498a.07.07 0 0 1 .07-.064h.277a.07.07 0 0 1 .07.074 7 7 0 0 0-.018.488c0 .683.086 1.087.137 1.267a.07.07 0 0 1-.034.081c-.091.047-.136.151-.12.278a.07.07 0 0 1-.068.079m-.18-2.128a8 8 0 0 0-.013.423c0 .102.005.893.162 1.385a.36.36 0 0 1 .106-.13c-.053-.207-.129-.612-.129-1.255q0-.21.013-.423z"/><path fill="#fff" d="M12.007 3.737c-.073-.254-.14-.685-.14-1.286q.001-.27.017-.493h-.277a8 8 0 0 0-.018.493c0 .147.009 1.198.262 1.635-.018-.14.027-.282.155-.349"/><path fill="#cbccce" d="M11.85 4.156a.07.07 0 0 1-.06-.035c-.258-.447-.271-1.47-.271-1.67 0-.038.001-.241.018-.498a.07.07 0 0 1 .07-.064h.277a.07.07 0 0 1 .07.074 7 7 0 0 0-.018.488c0 .683.086 1.087.137 1.267a.07.07 0 0 1-.034.081c-.091.047-.136.151-.12.278a.07.07 0 0 1-.068.079m-.178-2.128a8 8 0 0 0-.014.423c0 .102.005.893.162 1.385a.36.36 0 0 1 .106-.13c-.053-.207-.129-.612-.129-1.255q0-.21.013-.423z"/><path fill="#fff" d="M6.558 3.737c-.073-.254-.14-.685-.14-1.286q0-.27.018-.493h-.278a8 8 0 0 0-.018.493c0 .147.01 1.198.262 1.635-.018-.14.028-.282.156-.349"/><path fill="#cbccce" d="M6.402 4.156a.07.07 0 0 1-.06-.035c-.259-.447-.272-1.47-.272-1.67 0-.038.001-.241.019-.498a.07.07 0 0 1 .069-.064h.278a.07.07 0 0 1 .069.074 7 7 0 0 0-.017.488c0 .683.086 1.087.137 1.267a.07.07 0 0 1-.035.081c-.091.047-.135.151-.12.278a.07.07 0 0 1-.068.079m-.179-2.128a8 8 0 0 0-.014.423c0 .102.006.893.162 1.385a.36.36 0 0 1 .106-.13c-.053-.207-.128-.612-.128-1.255q0-.21.012-.423z"/><path fill="#cfd1d2" d="M42.106 1.896H2.203V1h39.7c.874.225 1.133.672.203.896"/><path fill="#b6b8ba" d="M42.106 1.965H2.203a.07.07 0 0 1-.07-.07V1a.07.07 0 0 1 .07-.07h39.7l.018.003c.528.136.843.353.84.58 0 .136-.112.324-.639.45zM2.273 1.826h39.825c.328-.08.523-.197.524-.314.002-.126-.223-.31-.728-.442H2.273z"/><path fill="#cfd1d2" d="M2.203 1.5v-.265h40.282c.127.085.202.175.207.265z" style="mix-blend-mode:screen"/><path fill="#c9cacc" d="M2.203 1.676h40.398c-.09.084-.246.16-.495.22H2.203z" style="mix-blend-mode:multiply"/><path fill="#b8babc" d="M2.9 1.442a.736.736 0 1 1-1.473 0 .736.736 0 0 1 1.472 0"/><path fill="#95979a" d="M2.163 2.248A.807.807 0 1 1 2.165.635a.807.807 0 0 1-.002 1.613m0-1.473a.667.667 0 1 0 .002 1.335.667.667 0 0 0-.002-1.335"/><path fill="#b8babc" d="M2.163.706a.736.736 0 1 0 0 1.472.736.736 0 0 0 0-1.472m-.15.904a.336.336 0 1 1 0-.672.336.336 0 0 1 0 .672" style="mix-blend-mode:multiply"/><path fill="#b8babc" d="M42.365 2.178a.736.736 0 1 0 0-1.472.736.736 0 0 0 0 1.472"/><path fill="#95979a" d="M42.365 2.248a.807.807 0 0 1 0-1.612.807.807 0 0 1 0 1.612m0-1.473a.667.667 0 1 0 .001 1.335.667.667 0 0 0-.001-1.335"/><path fill="#b8babc" d="M42.365.706a.736.736 0 1 0 0 1.472.736.736 0 0 0 0-1.472m-.151.904a.336.336 0 1 1 0-.672.336.336 0 0 1 0 .672" style="mix-blend-mode:multiply"/><path fill="#a38f84" d="M37.728 2.306c-1.376 0-1.376.626-2.753.626-1.376 0-1.376-.626-2.752-.626-1.377 0-1.377.626-2.753.626s-1.376-.626-2.752-.626c-1.377 0-1.377.626-2.753.626s-1.376-.626-2.752-.626-1.376.626-2.752.626-1.376-.626-2.752-.626-1.376.626-2.752.626-1.376-.626-2.753-.626c-1.376 0-1.376.626-2.752.626-1.121 0-1.329-.416-2.112-.57v68.034c.945-.112 1.09-.581 2.287-.581 1.36 0 1.36.605 2.72.605s1.36-.605 2.72-.605 1.36.605 2.721.605 1.36-.605 2.72-.605 1.36.605 2.72.605 1.36-.605 2.721-.605 1.36.605 2.72.605 1.361-.605 2.722-.605 1.36.605 2.72.605 1.361-.605 2.722-.605 1.36.605 2.72.605c1.199 0 1.342-.47 2.288-.581V2.875c-.783-.154-.99-.57-2.113-.57"/><path fill="#cec8d2" d="M37.554 70.49c-.687 0-1.036-.156-1.373-.306-.332-.147-.675-.3-1.348-.3-.674 0-1.017.153-1.348.3-.337.15-.687.305-1.373.305-.687 0-1.036-.155-1.374-.305-.33-.147-.673-.3-1.347-.3s-1.017.153-1.348.3c-.337.15-.686.305-1.373.305s-1.036-.155-1.373-.305c-.332-.147-.674-.3-1.348-.3-.673 0-1.016.153-1.347.3-.338.15-.687.305-1.373.305-.687 0-1.036-.155-1.373-.305-.332-.147-.674-.3-1.348-.3-.673 0-1.016.153-1.347.3-.337.15-.686.305-1.373.305s-1.035-.155-1.373-.305c-.331-.147-.674-.3-1.347-.3-.674 0-1.016.153-1.348.3-.337.15-.686.305-1.373.305s-1.036-.155-1.373-.305c-.331-.147-.674-.3-1.347-.3-.674 0-1.017.153-1.348.3-.257.114-.522.232-.935.281q-.021.002-.035-.018a.1.1 0 0 1-.015-.051V2.362q0-.031.016-.052t.036-.017c.306.06.528.162.743.26.335.152.682.31 1.363.31.682 0 1.028-.158 1.363-.31.342-.156.695-.317 1.39-.317.694 0 1.047.16 1.389.316.335.153.681.31 1.363.31s1.028-.157 1.363-.31c.341-.155.694-.316 1.389-.316s1.047.16 1.389.316c.335.153.681.31 1.363.31s1.028-.157 1.363-.31c.341-.155.694-.316 1.389-.316s1.048.16 1.389.316c.335.153.682.31 1.363.31s1.028-.157 1.363-.31c.342-.155.695-.316 1.39-.316.694 0 1.047.16 1.389.316.335.153.682.31 1.363.31.682 0 1.028-.157 1.363-.31.342-.155.695-.316 1.39-.316.694 0 1.048.16 1.389.316.335.153.682.31 1.363.31.682 0 1.029-.157 1.364-.31.341-.155.694-.316 1.39-.316.694 0 1.047.16 1.389.316.211.096.43.196.73.255.022.004.039.034.039.069v66.963c0 .036-.018.066-.042.069-.404.048-.665.164-.917.276-.338.15-.687.305-1.374.305m-2.721-.745c.686 0 1.035.155 1.373.305.331.148.674.3 1.348.3s1.017-.152 1.348-.3c.248-.11.504-.224.894-.275V2.936c-.286-.06-.499-.157-.704-.25-.335-.153-.682-.31-1.364-.31-.681 0-1.028.157-1.363.31-.342.155-.695.315-1.39.315-.694 0-1.048-.16-1.389-.315-.335-.153-.682-.31-1.363-.31-.682 0-1.028.157-1.364.31-.341.155-.694.315-1.389.315s-1.048-.16-1.39-.315c-.334-.153-.681-.31-1.362-.31-.682 0-1.029.157-1.364.31-.341.155-.694.315-1.389.315s-1.048-.16-1.39-.315c-.334-.153-.68-.31-1.362-.31-.681 0-1.028.157-1.363.31-.341.155-.695.315-1.39.315-.694 0-1.047-.16-1.388-.315-.335-.153-.682-.31-1.363-.31s-1.028.157-1.363.31c-.342.155-.695.315-1.39.315-.694 0-1.047-.16-1.388-.315-.336-.153-.682-.31-1.364-.31-.681 0-1.028.157-1.363.31C8.5 2.84 8.147 3 7.452 3s-1.048-.16-1.39-.315c-.198-.09-.403-.184-.676-.244V70.32c.376-.051.625-.162.867-.27.338-.15.687-.305 1.374-.305.686 0 1.035.155 1.373.305.33.148.673.3 1.347.3s1.016-.152 1.348-.3c.337-.15.686-.305 1.373-.305s1.035.155 1.373.305c.331.148.674.3 1.347.3.674 0 1.016-.152 1.347-.3.338-.15.687-.305 1.373-.305.687 0 1.036.155 1.373.305.332.148.674.3 1.348.3.673 0 1.016-.152 1.347-.3.337-.15.686-.305 1.373-.305s1.036.155 1.373.305c.332.148.674.3 1.348.3.673 0 1.016-.152 1.347-.3.338-.15.687-.305 1.374-.305s1.036.155 1.373.305c.332.148.674.3 1.348.3.673 0 1.016-.152 1.347-.3.338-.15.687-.305 1.374-.305"/><path fill="url(#h)" d="M5.948 6.763c.765-.29.84-1.942 1.244-2.786.388-.813 1.135-.746 1.401.198.286 1.013.26 2.262.287 3.349.047 1.867-.052 3.815.31 5.625.422-1.401.372-2.999.482-4.502.107-1.46.393-3.084 1.26-3.929.461-.449.9-.317 1.245.332.08.153.151.327.301.26a.93.93 0 0 0 .385-.32c.138-.19.275-.427.45-.54.419-.268.747.234.901.788.236.844.4 1.734.499 2.638.204 1.875.189 3.782.338 5.666.132-1.86.07-3.819.544-5.568.452-1.67 1.69-3.484 2.968-2.68.799.501 1.21 1.832 1.44 3.02.27 1.381.411 2.834.55 4.264q.063-.651.132-1.3c.098-.904.183-1.814.326-2.703.132-.817.297-1.652.583-2.378.176-.447.434-1.047.776-1.23.483-.257.71.765.896 1.24.124.317.315.749.599.647.467-.168.658-.97.885-1.531.162-.402.424-.961.782-.89.271.055.334.625.358.951.057.75.057 1.52.073 2.272q.034 1.704.035 3.409c.004 2.267-.02 4.536.03 6.801.046 2.067.009 4.151.218 6.2.307-3.407.242-6.874.264-10.304.018-2.937.256-6.254 1.76-8.371.318-.448.71-.857 1.154-.914.408-.052.797.177 1.1.594.875 1.208 1.184 3.18 1.342 4.891q.066.702.116 1.409.032-.457.071-.913c.072-.846.143-1.75.375-2.534.198-.671.507-1.155.966-1.406.435-.239.93-.297 1.359.003 1.081.756 1.246 2.961 1.478 4.522.162 1.085.368 2.152.535 3.234.167 1.085.31 2.183.427 3.284.196 1.844.324 3.702.468 5.557.06-1.872.262-3.724.312-5.598.053-1.967.105-3.893.38-5.823.286-2.009.684-4.272 1.488-6.025V2.875c-.783-.154-.99-.57-2.113-.57-1.376 0-1.376.627-2.753.627-1.376 0-1.376-.626-2.752-.626-1.377 0-1.377.626-2.753.626s-1.376-.626-2.752-.626c-1.377 0-1.377.626-2.753.626s-1.376-.626-2.752-.626-1.376.626-2.752.626-1.376-.626-2.752-.626-1.376.626-2.752.626-1.376-.626-2.753-.626c-1.376 0-1.376.626-2.752.626-1.121 0-1.329-.416-2.112-.57v3.996c.158.306.353.501.608.405" style="mix-blend-mode:multiply"/><path fill="#969085" d="M34.833 69.815c-1.36 0-1.36.605-2.721.605s-1.36-.605-2.721-.605-1.36.605-2.721.605-1.36-.605-2.72-.605-1.361.605-2.721.605-1.36-.605-2.72-.605-1.36.605-2.72.605-1.361-.605-2.721-.605-1.36.605-2.72.605-1.361-.605-2.721-.605c-1.198 0-1.342.469-2.287.58v.882c.945-.112 1.09-.581 2.287-.581 1.36 0 1.36.605 2.72.605s1.36-.605 2.72-.605 1.36.605 2.721.605 1.36-.605 2.72-.605 1.36.605 2.72.605 1.36-.605 2.721-.605 1.36.605 2.72.605 1.361-.605 2.722-.605 1.36.605 2.72.605 1.361-.605 2.722-.605 1.36.605 2.72.605c1.199 0 1.342-.47 2.288-.581v-.881c-.946.112-1.09.58-2.287.58-1.36 0-1.36-.604-2.721-.604"/><path fill="#706d65" d="M37.554 71.37c-.687 0-1.036-.155-1.373-.305-.332-.147-.675-.3-1.348-.3-.674 0-1.017.153-1.348.3-.337.15-.687.305-1.373.305-.687 0-1.036-.155-1.374-.305-.33-.147-.673-.3-1.347-.3s-1.017.153-1.348.3c-.337.15-.686.305-1.373.305s-1.036-.155-1.373-.305c-.332-.147-.674-.3-1.348-.3-.673 0-1.016.153-1.347.3-.338.15-.687.305-1.373.305-.687 0-1.036-.155-1.373-.305-.332-.147-.674-.3-1.348-.3-.673 0-1.016.153-1.347.3-.337.15-.686.305-1.373.305s-1.035-.155-1.373-.305c-.331-.147-.674-.3-1.347-.3-.674 0-1.016.153-1.348.3-.337.15-.686.305-1.373.305s-1.036-.155-1.373-.305c-.331-.147-.674-.3-1.347-.3-.674 0-1.017.153-1.348.3-.257.114-.522.232-.935.281q-.021.002-.035-.018a.1.1 0 0 1-.015-.051v-.881c0-.037.019-.067.042-.07.404-.048.665-.164.917-.276.338-.15.687-.305 1.374-.305.686 0 1.035.155 1.373.305.33.148.673.3 1.347.3s1.016-.152 1.348-.3c.337-.15.686-.305 1.373-.305s1.035.155 1.373.305c.331.148.674.3 1.347.3.674 0 1.016-.152 1.347-.3.338-.15.687-.305 1.373-.305.687 0 1.036.155 1.373.305.332.148.674.3 1.348.3.673 0 1.016-.152 1.347-.3.337-.15.686-.305 1.373-.305s1.036.155 1.373.305c.332.148.674.3 1.348.3.673 0 1.016-.152 1.347-.3.338-.15.687-.305 1.374-.305s1.036.155 1.373.305c.332.148.674.3 1.348.3.673 0 1.016-.152 1.347-.3.338-.15.687-.305 1.374-.305.686 0 1.035.155 1.373.305.331.148.674.3 1.348.3s1.017-.152 1.348-.3c.257-.114.522-.232.936-.28q.02-.002.034.018a.1.1 0 0 1 .015.05v.882c0 .036-.018.066-.042.07-.404.047-.665.163-.917.275-.338.15-.687.305-1.374.305m-2.721-.744c.686 0 1.035.155 1.373.305.331.148.674.3 1.348.3s1.017-.152 1.348-.3c.248-.11.504-.224.894-.275v-.742c-.377.052-.626.163-.868.27-.338.15-.687.305-1.374.305s-1.036-.155-1.373-.305c-.332-.147-.675-.3-1.348-.3-.674 0-1.017.153-1.348.3-.337.15-.687.305-1.373.305-.687 0-1.036-.155-1.374-.305-.33-.147-.673-.3-1.347-.3s-1.017.153-1.348.3c-.337.15-.686.305-1.373.305s-1.036-.155-1.373-.305c-.332-.147-.674-.3-1.348-.3-.673 0-1.016.153-1.347.3-.338.15-.687.305-1.373.305-.687 0-1.036-.155-1.373-.305-.332-.147-.674-.3-1.348-.3-.673 0-1.016.153-1.347.3-.337.15-.686.305-1.373.305s-1.035-.155-1.373-.305c-.331-.147-.674-.3-1.347-.3-.674 0-1.016.153-1.348.3-.337.15-.686.305-1.373.305s-1.036-.155-1.373-.305c-.331-.147-.674-.3-1.347-.3-.674 0-1.017.153-1.348.3-.248.11-.504.224-.893.276v.741c.376-.051.625-.162.867-.27.338-.15.687-.305 1.374-.305.686 0 1.035.155 1.373.305.33.148.673.3 1.347.3s1.016-.152 1.348-.3c.337-.15.686-.305 1.373-.305s1.035.155 1.373.305c.331.148.674.3 1.347.3.674 0 1.016-.152 1.347-.3.338-.15.687-.305 1.373-.305.687 0 1.036.155 1.373.305.332.148.674.3 1.348.3.673 0 1.016-.152 1.347-.3.337-.15.686-.305 1.373-.305s1.036.155 1.373.305c.332.148.674.3 1.348.3.673 0 1.016-.152 1.347-.3.338-.15.687-.305 1.374-.305s1.036.155 1.373.305c.332.148.674.3 1.348.3.673 0 1.016-.152 1.347-.3.338-.15.687-.305 1.374-.305"/><g opacity=".4" style="mix-blend-mode:multiply"><path fill="url(#i)" d="M12.957 2.932a3.2 3.2 0 0 1-.718-.073l.086 67.915c.2-.047.436-.078.743-.078 1.1 0 1.31.395 2.07.547l-.087-68.877c-.768.157-.982.566-2.094.566" style="mix-blend-mode:multiply"/><path fill="url(#j)" d="M7.452 2.932c-.356 0-.62-.042-.84-.104L6.7 70.825c.236-.075.521-.13.928-.13 1.005 0 1.268.331 1.886.504L9.425 2.394c-.673.172-.921.538-1.973.538" style="mix-blend-mode:multiply"/><path fill="url(#k)" d="M18.46 2.932a3.4 3.4 0 0 1-.595-.049l.086 67.854a3.4 3.4 0 0 1 .557-.041c1.185 0 1.338.459 2.257.577l-.088-68.929c-.87.136-1.047.588-2.216.588" style="mix-blend-mode:multiply"/><path fill="url(#l)" d="M34.975 2.932q-.123 0-.232-.007l.086 67.77h.004c1.36 0 1.36.606 2.72.606l.09-.001-.088-68.99c-1.205.05-1.264.622-2.58.622" style="mix-blend-mode:multiply"/><path fill="url(#m)" d="M23.965 2.932a3.5 3.5 0 0 1-.474-.03l.086 67.811q.167-.017.372-.017c1.26 0 1.354.519 2.442.595l-.088-68.963c-.978.11-1.116.604-2.338.604" style="mix-blend-mode:multiply"/><path fill="url(#n)" d="M29.47 2.932q-.194 0-.353-.016l.086 67.784q.09-.003.188-.004c1.328 0 1.36.576 2.626.603l-.088-68.982c-1.09.082-1.189.615-2.459.615" style="mix-blend-mode:multiply"/></g><path fill="#7d7f82" d="M6.846 4.022c0 .198-.101.359-.226.359s-.226-.161-.226-.36.1-.359.226-.359c.125 0 .226.161.226.36"/><path fill="#fff" d="M6.661.625c-.139 0-.24.124-.315.307h.284q.01 0 .02.004l.01-.019c.093.113.244.633.244 1.534 0 .9-.151 1.42-.244 1.533a.5.5 0 0 1-.06-.114c-.125.085-.067.334.065.406.502-.009.517-1.639.517-1.825 0-.187-.015-1.826-.522-1.826"/><path fill="#cbccce" d="M6.666 4.346a.1.1 0 0 1-.034-.009.37.37 0 0 1-.17-.299c-.003-.097.033-.18.1-.226a.07.07 0 0 1 .098.021c.077-.203.175-.663.175-1.382 0-.809-.124-1.29-.202-1.447l-.003-.001-.284-.001A.07.07 0 0 1 6.28.906q.143-.35.38-.35c.55 0 .592 1.45.592 1.895 0 .442-.043 1.885-.586 1.895m-.064-.325v.01a.25.25 0 0 0 .082.174c.315-.046.43-1.066.43-1.754 0-.706-.12-1.757-.452-1.757q-.115 0-.207.168h.163a.07.07 0 0 1 .097.011c.104.127.26.652.26 1.578 0 .925-.155 1.45-.26 1.578a.07.07 0 0 1-.107 0z"/><path fill="#7d7f82" d="M12.295 4.022c0 .198-.101.359-.226.359-.126 0-.227-.161-.227-.36s.101-.359.226-.359c.126 0 .227.161.227.36"/><path fill="#fff" d="M12.11.625c-.139 0-.24.124-.316.307h.284q.011 0 .02.004l.012-.019c.093.113.244.633.244 1.534 0 .9-.151 1.42-.244 1.533a.5.5 0 0 1-.06-.114c-.125.085-.067.334.064.406.503-.009.518-1.639.518-1.825 0-.187-.015-1.826-.522-1.826"/><path fill="#cbccce" d="M12.114 4.346a.1.1 0 0 1-.033-.009.37.37 0 0 1-.17-.299c-.004-.097.033-.18.1-.226a.07.07 0 0 1 .06-.008.07.07 0 0 1 .039.03c.076-.204.174-.664.174-1.383 0-.809-.124-1.29-.202-1.447l-.003-.001-.285-.001a.07.07 0 0 1-.064-.096q.143-.35.38-.35c.549 0 .591 1.45.591 1.895 0 .442-.042 1.885-.585 1.895zm-.064-.325v.01a.25.25 0 0 0 .082.174c.315-.046.43-1.066.43-1.754 0-.706-.12-1.757-.452-1.757q-.114 0-.206.168h.163a.07.07 0 0 1 .097.011c.104.127.26.652.26 1.578 0 .925-.156 1.45-.26 1.578a.07.07 0 0 1-.107 0z"/><path fill="#7d7f82" d="M17.454 4.022c0 .198-.102.359-.227.359s-.226-.161-.226-.36.101-.359.226-.359.227.161.227.36"/><path fill="#fff" d="M17.27.625c-.14 0-.242.124-.317.307h.284q.011 0 .02.004l.012-.019c.093.113.244.633.244 1.534 0 .9-.151 1.42-.244 1.533a.5.5 0 0 1-.06-.114c-.125.085-.067.334.064.406.503-.009.518-1.639.518-1.825 0-.187-.015-1.826-.522-1.826"/><path fill="#cbccce" d="M17.273 4.346a.1.1 0 0 1-.033-.009.37.37 0 0 1-.17-.299c-.004-.097.032-.18.1-.226a.07.07 0 0 1 .098.021c.077-.203.175-.663.175-1.382 0-.809-.124-1.29-.202-1.447l-.003-.001-.285-.001a.07.07 0 0 1-.064-.096q.143-.35.38-.35c.549 0 .591 1.45.591 1.895 0 .442-.042 1.885-.585 1.895zm-.064-.325v.01a.25.25 0 0 0 .082.174c.315-.046.43-1.066.43-1.754 0-.706-.12-1.757-.452-1.757q-.114 0-.206.168h.163a.07.07 0 0 1 .097.011c.104.127.26.652.26 1.578 0 .925-.156 1.45-.26 1.578a.07.07 0 0 1-.108 0z"/><path fill="#7d7f82" d="M22.972 4.022c0 .198-.101.359-.226.359s-.226-.161-.226-.36.1-.359.226-.359c.125 0 .226.161.226.36"/><path fill="#fff" d="M22.787.625c-.139 0-.24.124-.316.307h.285q.01 0 .019.004l.012-.019c.093.113.244.633.244 1.534 0 .9-.151 1.42-.244 1.533a.5.5 0 0 1-.06-.114c-.125.085-.067.334.064.406.503-.009.518-1.639.518-1.825 0-.187-.015-1.826-.522-1.826"/><path fill="#cbccce" d="M22.792 4.346a.1.1 0 0 1-.034-.009.37.37 0 0 1-.17-.299c-.004-.097.033-.18.1-.226a.07.07 0 0 1 .098.021c.077-.203.175-.663.175-1.382 0-.809-.124-1.29-.202-1.447l-.003-.001-.285-.001a.07.07 0 0 1-.064-.096q.143-.35.38-.35c.549 0 .592 1.45.592 1.895 0 .442-.043 1.885-.586 1.895zm-.064-.325v.01a.25.25 0 0 0 .082.174c.315-.046.43-1.066.43-1.754 0-.706-.12-1.757-.453-1.757q-.114 0-.206.168h.163a.07.07 0 0 1 .097.011c.104.127.26.652.26 1.578 0 .925-.156 1.45-.26 1.578a.07.07 0 0 1-.113-.008"/><path fill="#7d7f82" d="M27.887 4.022c0 .198-.101.359-.226.359s-.226-.161-.226-.36.101-.359.226-.359.226.161.226.36"/><path fill="#fff" d="M27.703.625c-.14 0-.241.124-.316.307h.284q.01 0 .02.004l.012-.019c.092.113.243.633.243 1.534 0 .9-.15 1.42-.243 1.533a.5.5 0 0 1-.06-.114c-.126.085-.067.334.064.406.503-.009.517-1.639.517-1.825 0-.187-.014-1.826-.521-1.826"/><path fill="#cbccce" d="M27.707 4.346a.1.1 0 0 1-.034-.009.37.37 0 0 1-.169-.299c-.004-.097.032-.18.1-.226a.07.07 0 0 1 .06-.008.07.07 0 0 1 .038.03c.076-.204.175-.664.175-1.383 0-.809-.125-1.29-.202-1.447l-.003-.001-.285-.001a.07.07 0 0 1-.064-.096q.143-.35.38-.35c.548 0 .591 1.45.591 1.895 0 .442-.042 1.885-.586 1.895zm-.064-.325v.01a.25.25 0 0 0 .082.174c.315-.046.43-1.066.43-1.754 0-.706-.12-1.757-.452-1.757q-.114 0-.207.168h.164a.07.07 0 0 1 .096.011c.105.127.26.652.26 1.578 0 .925-.155 1.45-.26 1.578a.07.07 0 0 1-.107 0z"/><path fill="#7d7f82" d="M33.545 4.022c0 .198-.102.359-.227.359-.124 0-.226-.161-.226-.36s.102-.359.227-.359c.124 0 .225.161.225.36"/><path fill="#fff" d="M33.36.625c-.14 0-.24.124-.316.307h.284q.012 0 .02.004l.012-.019c.093.113.244.633.244 1.534 0 .9-.151 1.42-.244 1.533a.5.5 0 0 1-.06-.114c-.125.085-.067.334.064.406.503-.009.518-1.639.518-1.825 0-.187-.015-1.826-.522-1.826"/><path fill="#cbccce" d="M33.364 4.346a.1.1 0 0 1-.033-.009.37.37 0 0 1-.17-.299c-.004-.097.032-.18.1-.226a.07.07 0 0 1 .098.021c.077-.203.175-.663.175-1.382 0-.809-.124-1.29-.202-1.447l-.003-.001-.285-.001a.07.07 0 0 1-.064-.096q.143-.35.38-.35c.549 0 .591 1.45.591 1.895 0 .442-.042 1.885-.586 1.895M33.3 4.02v.01a.25.25 0 0 0 .082.174c.315-.046.43-1.066.43-1.754 0-.706-.12-1.757-.452-1.757q-.114 0-.206.168h.163a.07.07 0 0 1 .097.011c.104.127.26.652.26 1.578 0 .925-.156 1.45-.26 1.578a.07.07 0 0 1-.114-.008"/><path fill="#7d7f82" d="M39.48 4.022c0 .198-.101.359-.226.359s-.226-.161-.226-.36.101-.359.226-.359.226.161.226.36"/><path fill="#fff" d="M39.296.625c-.14 0-.241.124-.316.307h.284q.01 0 .02.004l.012-.019c.092.113.243.633.243 1.534 0 .9-.15 1.42-.243 1.533a.5.5 0 0 1-.06-.114c-.126.085-.067.334.064.406.503-.009.517-1.639.517-1.825 0-.187-.014-1.826-.521-1.826"/><path fill="#cbccce" d="M39.3 4.346a.1.1 0 0 1-.034-.009.37.37 0 0 1-.169-.299c-.004-.097.032-.18.1-.226a.07.07 0 0 1 .098.021c.076-.203.175-.663.175-1.382 0-.809-.125-1.29-.202-1.447l-.004-.001-.284-.001a.07.07 0 0 1-.065-.096q.144-.35.38-.35c.55 0 .592 1.45.592 1.895 0 .442-.042 1.885-.586 1.895zm-.064-.325v.01a.25.25 0 0 0 .082.174c.315-.046.43-1.066.43-1.754 0-.706-.12-1.757-.452-1.757q-.114 0-.207.168h.164a.07.07 0 0 1 .096.011c.105.127.26.652.26 1.578 0 .925-.155 1.45-.26 1.578a.07.07 0 0 1-.113-.008"/><path fill="#fff" d="M116.277 3.737c-.073-.254-.14-.685-.14-1.286q0-.27.018-.493h-.278a8 8 0 0 0-.018.493c0 .147.009 1.198.262 1.635-.018-.14.027-.282.156-.349"/><path fill="#cbccce" d="M116.121 4.156a.07.07 0 0 1-.06-.035c-.259-.447-.272-1.47-.272-1.67 0-.038.001-.241.019-.498a.07.07 0 0 1 .069-.064h.278q.03 0 .05.022t.019.052a7 7 0 0 0-.017.488c0 .683.086 1.087.137 1.267a.07.07 0 0 1-.035.081c-.091.047-.135.151-.119.278a.07.07 0 0 1-.069.079m-.179-2.128a8 8 0 0 0-.014.423c0 .102.006.893.162 1.385a.36.36 0 0 1 .106-.13c-.053-.207-.128-.612-.128-1.255q0-.21.012-.423z"/><path fill="#fff" d="M110.341 3.737c-.072-.254-.139-.685-.139-1.286q.001-.27.017-.493h-.278a8 8 0 0 0-.018.493c0 .147.01 1.198.262 1.635-.018-.14.028-.282.156-.349"/><path fill="#cbccce" d="M110.185 4.156a.07.07 0 0 1-.06-.035c-.258-.447-.271-1.47-.271-1.67 0-.038.001-.241.018-.498a.07.07 0 0 1 .069-.064h.278a.07.07 0 0 1 .051.022q.02.022.018.052a7 7 0 0 0-.017.488c0 .683.086 1.087.137 1.267a.07.07 0 0 1-.035.081c-.091.047-.135.151-.119.278a.07.07 0 0 1-.069.079m-.178-2.128a8 8 0 0 0-.014.423c0 .102.005.893.161 1.385a.36.36 0 0 1 .107-.13c-.054-.207-.129-.612-.129-1.255q0-.21.013-.423z"/><path fill="#fff" d="M104.684 3.737c-.072-.254-.14-.685-.14-1.286q0-.27.018-.493h-.278a8 8 0 0 0-.018.493c0 .147.009 1.198.262 1.635-.018-.14.028-.282.156-.349"/><path fill="#cbccce" d="M104.528 4.156a.07.07 0 0 1-.06-.035c-.259-.447-.272-1.47-.272-1.67 0-.038.001-.241.019-.498a.07.07 0 0 1 .069-.064h.278a.07.07 0 0 1 .051.022q.02.022.018.052a7 7 0 0 0-.017.488c0 .683.086 1.087.137 1.267a.07.07 0 0 1-.035.081c-.091.047-.135.151-.119.278a.07.07 0 0 1-.069.079m-.179-2.128c-.013.22-.013.389-.013.423 0 .102.005.893.161 1.385a.36.36 0 0 1 .106-.13c-.053-.207-.128-.612-.128-1.255q0-.21.013-.423z"/><path fill="#fff" d="M99.768 3.737c-.072-.254-.14-.685-.14-1.286q.001-.27.018-.493h-.277a8 8 0 0 0-.019.493c0 .147.01 1.198.263 1.635-.018-.14.027-.282.155-.349"/><path fill="#cbccce" d="M99.613 4.156a.07.07 0 0 1-.06-.035c-.259-.447-.272-1.47-.272-1.67 0-.038 0-.241.018-.498a.07.07 0 0 1 .07-.064h.277a.07.07 0 0 1 .07.074 7 7 0 0 0-.018.488c0 .683.086 1.087.137 1.267a.07.07 0 0 1-.034.081c-.091.047-.136.151-.12.278a.07.07 0 0 1-.068.079m-.179-2.128a8 8 0 0 0-.014.423c0 .102.005.893.162 1.385a.36.36 0 0 1 .106-.13c-.053-.207-.129-.612-.129-1.255q0-.21.013-.423z"/><path fill="#fff" d="M94.25 3.737c-.072-.254-.14-.685-.14-1.286q.001-.27.018-.493h-.277a8 8 0 0 0-.019.493c0 .147.01 1.198.262 1.635-.017-.14.028-.282.156-.349"/><path fill="#cbccce" d="M94.094 4.156a.07.07 0 0 1-.06-.035c-.258-.447-.271-1.47-.271-1.67 0-.038 0-.241.018-.498a.07.07 0 0 1 .07-.064h.277a.07.07 0 0 1 .07.074 7 7 0 0 0-.018.488c0 .683.086 1.087.137 1.267a.07.07 0 0 1-.034.081c-.091.047-.136.151-.12.278a.07.07 0 0 1-.069.079m-.178-2.128a8 8 0 0 0-.014.423c0 .102.005.893.162 1.385a.36.36 0 0 1 .106-.13c-.054-.207-.129-.612-.129-1.255q0-.21.013-.423z"/><path fill="#fff" d="M89.091 3.737c-.072-.254-.14-.685-.14-1.286q.001-.27.018-.493h-.277a8 8 0 0 0-.019.493c0 .147.01 1.198.263 1.635-.018-.14.027-.282.155-.349"/><path fill="#cbccce" d="M88.936 4.156a.07.07 0 0 1-.06-.035c-.26-.447-.272-1.47-.272-1.67 0-.038 0-.241.018-.498a.07.07 0 0 1 .07-.064h.277a.07.07 0 0 1 .07.074 7 7 0 0 0-.018.488c0 .683.086 1.087.137 1.267a.07.07 0 0 1-.034.081c-.091.047-.136.151-.12.278a.07.07 0 0 1-.069.079m-.18-2.128a8 8 0 0 0-.013.423c0 .102.005.893.162 1.385a.36.36 0 0 1 .106-.13c-.054-.207-.129-.612-.129-1.255q0-.21.013-.423z"/><path fill="#fff" d="M83.643 3.737c-.073-.254-.14-.685-.14-1.286q.001-.27.017-.493h-.277a8 8 0 0 0-.018.493c0 .147.009 1.198.262 1.635-.018-.14.027-.282.156-.349"/><path fill="#cbccce" d="M83.487 4.156a.07.07 0 0 1-.06-.035c-.259-.447-.272-1.47-.272-1.67 0-.038.001-.241.018-.498a.07.07 0 0 1 .07-.064h.277a.07.07 0 0 1 .07.074 7 7 0 0 0-.017.488c0 .683.085 1.087.136 1.267a.07.07 0 0 1-.034.081c-.091.047-.136.151-.12.278a.07.07 0 0 1-.068.079m-.179-2.128a8 8 0 0 0-.014.423c0 .102.005.893.162 1.385a.36.36 0 0 1 .106-.13c-.053-.207-.129-.612-.129-1.255q0-.21.013-.423z"/><path fill="#cfd1d2" d="M119.191 1.896H79.288V1h39.7c.874.225 1.133.672.203.896"/><path fill="#b6b8ba" d="M119.191 1.965H79.288a.07.07 0 0 1-.07-.07V1a.07.07 0 0 1 .07-.07h39.7q.01 0 .017.003c.529.136.843.353.841.58-.001.136-.113.324-.639.45zm-39.833-.139h39.824c.328-.08.524-.197.525-.314.001-.126-.224-.31-.728-.442H79.358z"/><path fill="#cfd1d2" d="M79.288 1.5v-.265h40.281c.128.085.203.175.208.265z" style="mix-blend-mode:screen"/><path fill="#c9cacc" d="M79.288 1.676h40.398c-.091.084-.247.16-.495.22H79.288z" style="mix-blend-mode:multiply"/><path fill="#b8babc" d="M79.984 1.442a.736.736 0 1 1-1.472 0 .736.736 0 0 1 1.472 0"/><path fill="#95979a" d="M79.248 2.248A.806.806 0 1 1 79.25.635a.806.806 0 0 1-.002 1.613m0-1.473a.667.667 0 1 0 .002 1.335.667.667 0 0 0-.002-1.335"/><path fill="#b8babc" d="M79.248.706a.736.736 0 1 0 0 1.472.736.736 0 0 0 0-1.472m-.15.904a.336.336 0 1 1 0-.672.336.336 0 0 1 0 .672" style="mix-blend-mode:multiply"/><path fill="#b8babc" d="M119.45 2.178a.736.736 0 1 0 0-1.472.736.736 0 0 0 0 1.472"/><path fill="#95979a" d="M119.45 2.248a.806.806 0 1 1 0-1.613.806.806 0 0 1 0 1.613m0-1.473a.667.667 0 1 0 .001 1.335.667.667 0 0 0-.001-1.335"/><path fill="#b8babc" d="M119.45.706a.737.737 0 1 0 0 1.473.737.737 0 0 0 0-1.473m-.151.904a.336.336 0 1 1 0-.671.336.336 0 0 1 0 .671" style="mix-blend-mode:multiply"/><path fill="#a38f84" d="M114.813 2.306c-1.376 0-1.376.626-2.753.626-1.376 0-1.376-.626-2.752-.626-1.377 0-1.377.626-2.753.626s-1.376-.626-2.753-.626c-1.376 0-1.376.626-2.752.626s-1.376-.626-2.752-.626-1.376.626-2.752.626-1.376-.626-2.752-.626-1.376.626-2.752.626c-1.377 0-1.377-.626-2.753-.626s-1.376.626-2.752.626c-1.121 0-1.329-.416-2.112-.57v68.034c.945-.112 1.089-.581 2.287-.581 1.36 0 1.36.605 2.72.605s1.36-.605 2.72-.605 1.36.605 2.721.605 1.36-.605 2.72-.605 1.36.605 2.72.605 1.36-.605 2.721-.605 1.36.605 2.721.605 1.36-.605 2.721-.605 1.36.605 2.721.605 1.36-.605 2.72-.605 1.361.605 2.722.605c1.198 0 1.341-.47 2.287-.581V2.875c-.783-.154-.991-.57-2.113-.57"/><path fill="#cec8d2" d="M114.639 70.49c-.687 0-1.036-.156-1.374-.306-.331-.147-.674-.3-1.348-.3-.673 0-1.016.153-1.347.3-.338.15-.687.305-1.373.305-.687 0-1.036-.155-1.374-.305-.331-.147-.674-.3-1.347-.3-.674 0-1.017.153-1.348.3-.338.15-.687.305-1.373.305-.687 0-1.036-.155-1.373-.305-.332-.147-.674-.3-1.348-.3-.673 0-1.016.153-1.348.3-.337.15-.686.305-1.372.305-.687 0-1.036-.155-1.373-.305-.332-.147-.674-.3-1.348-.3-.673 0-1.016.153-1.347.3-.337.15-.686.305-1.373.305s-1.035-.155-1.373-.305c-.331-.147-.674-.3-1.347-.3-.674 0-1.017.153-1.348.3-.337.15-.686.305-1.373.305s-1.036-.155-1.373-.305c-.331-.147-.674-.3-1.347-.3-.674 0-1.017.153-1.348.3-.257.114-.522.232-.936.281q-.02.002-.034-.018a.1.1 0 0 1-.015-.051V2.362q0-.031.016-.052t.036-.017c.306.06.528.162.743.26.335.152.682.31 1.363.31s1.028-.158 1.363-.31c.341-.156.694-.317 1.39-.317.694 0 1.047.16 1.388.316.336.153.682.31 1.364.31.68 0 1.027-.157 1.363-.31.341-.155.694-.316 1.389-.316.694 0 1.047.16 1.389.316.335.153.681.31 1.363.31s1.028-.157 1.363-.31c.341-.155.694-.316 1.389-.316.694 0 1.047.16 1.389.316.335.153.682.31 1.363.31s1.028-.157 1.363-.31c.342-.155.695-.316 1.389-.316s1.048.16 1.39.316c.335.153.682.31 1.363.31s1.028-.157 1.363-.31c.342-.155.695-.316 1.39-.316.694 0 1.048.16 1.389.316.335.153.682.31 1.363.31.682 0 1.028-.157 1.364-.31.341-.155.694-.316 1.389-.316s1.048.16 1.39.316c.211.096.43.196.729.255.023.004.04.034.04.069v66.963c0 .036-.019.066-.042.069-.404.048-.665.164-.917.276-.338.15-.687.305-1.374.305m-2.722-.745c.687 0 1.036.155 1.374.305.331.148.674.3 1.348.3s1.016-.152 1.348-.3c.248-.11.504-.224.894-.275V2.936a3.2 3.2 0 0 1-.704-.25c-.336-.153-.682-.31-1.364-.31-.681 0-1.028.157-1.363.31-.342.155-.695.315-1.39.315s-1.048-.16-1.389-.315c-.335-.153-.682-.31-1.363-.31-.682 0-1.028.157-1.364.31-.341.155-.694.315-1.389.315s-1.048-.16-1.389-.315c-.336-.153-.682-.31-1.364-.31-.681 0-1.028.157-1.363.31-.341.155-.694.315-1.389.315s-1.048-.16-1.39-.315c-.334-.153-.68-.31-1.362-.31s-1.028.157-1.363.31c-.342.155-.695.315-1.39.315-.694 0-1.047-.16-1.388-.315-.335-.153-.682-.31-1.363-.31-.682 0-1.028.157-1.363.31-.342.155-.695.315-1.39.315-.694 0-1.047-.16-1.389-.315-.335-.153-.681-.31-1.363-.31s-1.028.157-1.363.31c-.341.155-.694.315-1.389.315s-1.048-.16-1.39-.315c-.198-.09-.404-.184-.677-.244V70.32c.377-.051.626-.162.868-.27.338-.15.687-.305 1.374-.305.686 0 1.035.155 1.373.305.33.148.673.3 1.347.3s1.016-.152 1.347-.3c.338-.15.687-.305 1.374-.305.686 0 1.035.155 1.372.305.332.148.674.3 1.348.3s1.016-.152 1.347-.3c.338-.15.687-.305 1.373-.305.687 0 1.036.155 1.373.305.332.148.674.3 1.348.3.673 0 1.016-.152 1.347-.3.337-.15.686-.305 1.373-.305s1.036.155 1.373.305c.332.148.674.3 1.348.3.673 0 1.016-.152 1.347-.3.338-.15.687-.305 1.374-.305.686 0 1.035.155 1.373.305.331.148.674.3 1.348.3.673 0 1.016-.152 1.347-.3.338-.15.687-.305 1.373-.305"/><path fill="url(#o)" d="M83.033 6.763c.765-.29.84-1.942 1.244-2.786.388-.813 1.135-.746 1.401.198.286 1.013.26 2.262.287 3.349.047 1.867-.052 3.815.31 5.625.422-1.401.372-2.999.482-4.502.106-1.46.393-3.084 1.26-3.929.461-.449.9-.317 1.245.332.08.153.15.327.3.26a.93.93 0 0 0 .386-.32c.138-.19.275-.427.45-.54.419-.268.746.234.901.788.236.844.4 1.734.499 2.638.204 1.875.189 3.782.338 5.666.132-1.86.07-3.819.544-5.568.452-1.67 1.69-3.484 2.968-2.68.798.501 1.209 1.832 1.44 3.02.27 1.381.411 2.834.55 4.264q.062-.651.132-1.3c.098-.904.183-1.814.326-2.703.132-.817.297-1.652.583-2.378.176-.447.434-1.047.776-1.23.483-.257.71.765.896 1.24.124.317.314.749.598.647.468-.168.659-.97.886-1.531.162-.402.424-.961.782-.89.271.055.333.625.358.951.057.75.057 1.52.073 2.272.024 1.136.032 2.272.035 3.409.004 2.267-.02 4.536.03 6.801.045 2.067.009 4.151.218 6.2.307-3.407.242-6.874.263-10.304.019-2.937.257-6.254 1.761-8.371.318-.448.709-.857 1.154-.914.408-.052.797.177 1.099.594.876 1.208 1.185 3.18 1.343 4.891q.065.702.115 1.409.033-.457.072-.913c.072-.846.143-1.75.375-2.534.198-.671.506-1.155.966-1.406.435-.239.929-.297 1.359.003 1.081.756 1.246 2.961 1.478 4.522.162 1.085.368 2.152.535 3.234.167 1.085.31 2.183.427 3.284.196 1.844.324 3.702.468 5.557.06-1.872.262-3.724.312-5.598.053-1.967.105-3.893.379-5.823.287-2.009.685-4.272 1.489-6.025V2.875c-.783-.154-.991-.57-2.113-.57-1.376 0-1.376.627-2.753.627-1.376 0-1.376-.626-2.752-.626-1.377 0-1.377.626-2.753.626s-1.376-.626-2.753-.626c-1.376 0-1.376.626-2.752.626s-1.376-.626-2.752-.626-1.376.626-2.752.626-1.376-.626-2.752-.626-1.376.626-2.752.626c-1.377 0-1.377-.626-2.753-.626s-1.376.626-2.752.626c-1.121 0-1.329-.416-2.112-.57v3.996c.158.306.353.501.608.405" style="mix-blend-mode:multiply"/><path fill="#969085" d="M111.917 69.815c-1.36 0-1.36.605-2.72.605s-1.361-.605-2.721-.605-1.361.605-2.721.605-1.361-.605-2.721-.605-1.36.605-2.72.605-1.36-.605-2.72-.605-1.36.605-2.72.605-1.361-.605-2.721-.605-1.36.605-2.721.605-1.36-.605-2.72-.605c-1.198 0-1.342.469-2.287.58v.882c.945-.112 1.089-.581 2.287-.581 1.36 0 1.36.605 2.72.605s1.36-.605 2.72-.605 1.36.605 2.721.605 1.36-.605 2.72-.605 1.36.605 2.72.605 1.36-.605 2.721-.605 1.36.605 2.721.605 1.36-.605 2.721-.605 1.36.605 2.721.605 1.36-.605 2.72-.605 1.361.605 2.722.605c1.198 0 1.341-.47 2.287-.581v-.881c-.946.112-1.089.58-2.287.58-1.361 0-1.361-.604-2.722-.604"/><path fill="#706d65" d="M114.639 71.37c-.687 0-1.036-.155-1.374-.305-.331-.147-.674-.3-1.348-.3-.673 0-1.016.153-1.347.3-.338.15-.687.305-1.373.305-.687 0-1.036-.155-1.374-.305-.331-.147-.674-.3-1.347-.3-.674 0-1.017.153-1.348.3-.338.15-.687.305-1.373.305-.687 0-1.036-.155-1.373-.305-.332-.147-.674-.3-1.348-.3-.673 0-1.016.153-1.348.3-.337.15-.686.305-1.372.305-.687 0-1.036-.155-1.373-.305-.332-.147-.674-.3-1.348-.3-.673 0-1.016.153-1.347.3-.337.15-.686.305-1.373.305s-1.035-.155-1.373-.305c-.331-.147-.674-.3-1.347-.3-.674 0-1.017.153-1.348.3-.337.15-.686.305-1.373.305s-1.036-.155-1.373-.305c-.331-.147-.674-.3-1.347-.3-.674 0-1.017.153-1.348.3-.257.114-.522.232-.936.281q-.02.002-.034-.018a.1.1 0 0 1-.015-.051v-.881c0-.037.019-.067.042-.07.404-.048.665-.164.917-.276.338-.15.687-.305 1.374-.305.686 0 1.035.155 1.373.305.33.148.673.3 1.347.3s1.016-.152 1.347-.3c.338-.15.687-.305 1.374-.305.686 0 1.035.155 1.372.305.332.148.674.3 1.348.3s1.016-.152 1.347-.3c.338-.15.687-.305 1.373-.305.687 0 1.036.155 1.373.305.332.148.674.3 1.348.3.673 0 1.016-.152 1.347-.3.337-.15.686-.305 1.373-.305s1.036.155 1.373.305c.332.148.674.3 1.348.3.673 0 1.016-.152 1.347-.3.338-.15.687-.305 1.374-.305.686 0 1.035.155 1.373.305.331.148.674.3 1.348.3.673 0 1.016-.152 1.347-.3.338-.15.687-.305 1.373-.305.687 0 1.036.155 1.374.305.331.148.674.3 1.348.3s1.016-.152 1.348-.3c.257-.114.522-.232.936-.28q.02-.002.034.018a.1.1 0 0 1 .015.05v.882c0 .036-.019.066-.042.07-.404.047-.665.163-.917.275-.338.15-.687.305-1.374.305m-2.722-.744c.687 0 1.036.155 1.374.305.331.148.674.3 1.348.3s1.016-.152 1.348-.3c.248-.11.504-.224.894-.275v-.742a3 3 0 0 0-.868.27c-.338.15-.687.305-1.374.305s-1.036-.155-1.374-.305c-.331-.147-.674-.3-1.348-.3-.673 0-1.016.153-1.347.3-.338.15-.687.305-1.373.305-.687 0-1.036-.155-1.374-.305-.331-.147-.674-.3-1.347-.3-.674 0-1.017.153-1.348.3-.338.15-.687.305-1.373.305-.687 0-1.036-.155-1.373-.305-.332-.147-.674-.3-1.348-.3-.673 0-1.016.153-1.348.3-.337.15-.686.305-1.372.305-.687 0-1.036-.155-1.373-.305-.332-.147-.674-.3-1.348-.3-.673 0-1.016.153-1.347.3-.337.15-.686.305-1.373.305s-1.035-.155-1.373-.305c-.331-.147-.674-.3-1.347-.3-.674 0-1.017.153-1.348.3-.337.15-.686.305-1.373.305s-1.036-.155-1.373-.305c-.331-.147-.674-.3-1.347-.3-.674 0-1.017.153-1.348.3-.248.11-.504.224-.894.276v.741c.377-.051.626-.162.868-.27.338-.15.687-.305 1.374-.305.686 0 1.035.155 1.373.305.33.148.673.3 1.347.3s1.016-.152 1.347-.3c.338-.15.687-.305 1.374-.305.686 0 1.035.155 1.372.305.332.148.674.3 1.348.3s1.016-.152 1.347-.3c.338-.15.687-.305 1.373-.305.687 0 1.036.155 1.373.305.332.148.674.3 1.348.3.673 0 1.016-.152 1.347-.3.337-.15.686-.305 1.373-.305s1.036.155 1.373.305c.332.148.674.3 1.348.3.673 0 1.016-.152 1.347-.3.338-.15.687-.305 1.374-.305.686 0 1.035.155 1.373.305.331.148.674.3 1.348.3.673 0 1.016-.152 1.347-.3.338-.15.687-.305 1.373-.305"/><g opacity=".4" style="mix-blend-mode:multiply"><path fill="url(#p)" d="M90.042 2.932a3.2 3.2 0 0 1-.718-.073l.086 67.915c.2-.047.436-.078.743-.078 1.1 0 1.31.395 2.07.547l-.087-68.877c-.769.157-.982.566-2.094.566" style="mix-blend-mode:multiply"/><path fill="url(#q)" d="M84.537 2.932c-.356 0-.62-.042-.84-.104l.087 67.997c.236-.075.521-.13.927-.13 1.006 0 1.269.331 1.887.504L86.51 2.394c-.673.172-.921.538-1.973.538" style="mix-blend-mode:multiply"/><path fill="url(#r)" d="M95.546 2.932c-.235 0-.428-.019-.596-.049l.086 67.854a3.4 3.4 0 0 1 .557-.041c1.185 0 1.338.459 2.257.577l-.088-68.929c-.87.136-1.047.588-2.216.588" style="mix-blend-mode:multiply"/><path fill="url(#s)" d="M112.06 2.932q-.123 0-.232-.007l.086 67.77h.003c1.361 0 1.361.606 2.722.606l.089-.001-.088-68.99c-1.205.05-1.264.622-2.58.622" style="mix-blend-mode:multiply"/><path fill="url(#t)" d="M101.05 2.932q-.269 0-.474-.03l.086 67.811q.167-.017.372-.017c1.26 0 1.354.519 2.442.595l-.088-68.963c-.978.11-1.116.604-2.338.604" style="mix-blend-mode:multiply"/><path fill="url(#u)" d="M106.555 2.932a4 4 0 0 1-.353-.016l.086 67.784a4 4 0 0 1 .188-.004c1.327 0 1.36.576 2.626.603l-.088-68.982c-1.09.082-1.189.615-2.459.615" style="mix-blend-mode:multiply"/></g><path fill="#7d7f82" d="M83.93 4.022c0 .198-.1.359-.225.359s-.226-.161-.226-.36.1-.359.226-.359c.125 0 .226.161.226.36"/><path fill="#fff" d="M83.746.625c-.139 0-.24.124-.316.307h.284q.011 0 .02.004l.012-.019c.093.113.244.633.244 1.534 0 .9-.151 1.42-.244 1.533a.5.5 0 0 1-.06-.114c-.125.085-.067.334.064.406.503-.009.518-1.639.518-1.825 0-.187-.015-1.826-.522-1.826"/><path fill="#cbccce" d="M83.75 4.346a.1.1 0 0 1-.033-.009.37.37 0 0 1-.17-.299c-.004-.097.033-.18.1-.226a.07.07 0 0 1 .06-.008.07.07 0 0 1 .039.03c.076-.204.174-.664.174-1.383 0-.809-.124-1.29-.202-1.447l-.003-.001-.285-.001a.07.07 0 0 1-.064-.096q.144-.35.38-.35c.549 0 .592 1.45.592 1.895 0 .442-.043 1.885-.586 1.895zm-.063-.325v.01a.25.25 0 0 0 .082.174c.314-.046.43-1.066.43-1.754 0-.706-.12-1.757-.453-1.757q-.114 0-.206.168h.163a.07.07 0 0 1 .097.011c.104.127.26.652.26 1.578 0 .925-.156 1.45-.26 1.578a.07.07 0 0 1-.113-.008"/><path fill="#7d7f82" d="M89.38 4.022c0 .198-.102.359-.227.359s-.226-.161-.226-.36.101-.359.226-.359.226.161.226.36"/><path fill="#fff" d="M89.195.625c-.14 0-.24.124-.316.307h.284q.011 0 .02.004l.012-.019c.093.113.244.633.244 1.534 0 .9-.151 1.42-.244 1.533a.5.5 0 0 1-.06-.114c-.125.085-.067.334.064.406.503-.009.518-1.639.518-1.825 0-.187-.015-1.826-.522-1.826"/><path fill="#cbccce" d="M89.2 4.346a.1.1 0 0 1-.035-.009.37.37 0 0 1-.169-.299c-.004-.097.032-.18.1-.226a.07.07 0 0 1 .098.021c.077-.203.175-.663.175-1.382 0-.809-.124-1.29-.202-1.447l-.003-.001-.285-.001a.07.07 0 0 1-.064-.096q.144-.35.38-.35c.549 0 .591 1.45.591 1.895 0 .442-.042 1.885-.586 1.895m-.065-.325v.01a.25.25 0 0 0 .082.174c.315-.046.43-1.066.43-1.754 0-.706-.12-1.757-.452-1.757q-.114 0-.206.168h.163a.07.07 0 0 1 .097.011c.104.127.26.652.26 1.578 0 .925-.156 1.45-.26 1.578a.07.07 0 0 1-.108 0z"/><path fill="#7d7f82" d="M94.538 4.022c0 .198-.1.359-.226.359-.125 0-.226-.161-.226-.36s.101-.359.226-.359.226.161.226.36"/><path fill="#fff" d="M94.354.625c-.14 0-.241.124-.316.307h.284q.01 0 .02.004l.012-.019c.093.113.243.633.243 1.534 0 .9-.15 1.42-.243 1.533a.5.5 0 0 1-.06-.114c-.125.085-.067.334.064.406.503-.009.518-1.639.518-1.825 0-.187-.015-1.826-.522-1.826"/><path fill="#cbccce" d="M94.358 4.346a.1.1 0 0 1-.034-.009.37.37 0 0 1-.169-.299c-.004-.097.032-.18.1-.226a.07.07 0 0 1 .098.021c.077-.203.175-.663.175-1.382 0-.809-.125-1.29-.202-1.447l-.003-.001-.285-.001a.07.07 0 0 1-.064-.096q.144-.35.38-.35c.549 0 .591 1.45.591 1.895 0 .442-.042 1.885-.586 1.895m-.064-.325v.01a.25.25 0 0 0 .082.174c.315-.046.43-1.066.43-1.754 0-.706-.12-1.757-.452-1.757q-.114 0-.206.168h.163a.07.07 0 0 1 .097.011c.104.127.26.652.26 1.578 0 .925-.156 1.45-.26 1.578a.07.07 0 0 1-.114-.008"/><path fill="#7d7f82" d="M100.057 4.022c0 .198-.102.359-.227.359-.124 0-.225-.161-.225-.36s.1-.359.225-.359c.126 0 .227.161.227.36"/><path fill="#fff" d="M99.872.625c-.139 0-.24.124-.316.307h.284q.011 0 .02.004l.012-.019c.093.113.244.633.244 1.534 0 .9-.151 1.42-.244 1.533a.5.5 0 0 1-.06-.114c-.125.085-.067.334.064.406.503-.009.518-1.639.518-1.825 0-.187-.015-1.826-.522-1.826"/><path fill="#cbccce" d="M99.876 4.346a.1.1 0 0 1-.033-.009.37.37 0 0 1-.17-.299c-.004-.097.032-.18.1-.226a.07.07 0 0 1 .098.021c.077-.203.175-.663.175-1.382 0-.809-.124-1.29-.202-1.447l-.003-.001-.285-.001a.07.07 0 0 1-.064-.096q.143-.35.38-.35c.549 0 .591 1.45.591 1.895 0 .442-.042 1.885-.585 1.895zm-.064-.325v.01a.25.25 0 0 0 .082.174c.315-.046.43-1.066.43-1.754 0-.706-.12-1.757-.452-1.757q-.114 0-.206.168h.163a.07.07 0 0 1 .097.011c.104.127.259.652.259 1.578 0 .925-.155 1.45-.259 1.578a.07.07 0 0 1-.108 0z"/><path fill="#7d7f82" d="M104.972 4.022c0 .198-.101.359-.226.359s-.226-.161-.226-.36.101-.359.226-.359.226.161.226.36"/><path fill="#fff" d="M104.788.625c-.14 0-.241.124-.316.307h.284q.01 0 .019.004l.013-.019c.092.113.243.633.243 1.534 0 .9-.151 1.42-.243 1.533a.4.4 0 0 1-.06-.114c-.126.085-.067.334.064.406.503-.009.517-1.639.517-1.825 0-.187-.014-1.826-.521-1.826"/><path fill="#cbccce" d="M104.792 4.346a.1.1 0 0 1-.034-.009.37.37 0 0 1-.169-.299c-.004-.097.032-.18.1-.226a.07.07 0 0 1 .059-.008q.025.007.039.03c.076-.204.174-.664.174-1.383 0-.809-.124-1.29-.201-1.447l-.004-.001-.284-.001a.07.07 0 0 1-.058-.031.07.07 0 0 1-.007-.065q.143-.35.381-.35c.548 0 .591 1.45.591 1.895 0 .442-.042 1.885-.586 1.895zm-.064-.325v.01a.24.24 0 0 0 .082.174c.315-.046.43-1.066.43-1.754 0-.706-.121-1.757-.452-1.757q-.115 0-.207.168h.163a.07.07 0 0 1 .044-.014q.032 0 .053.025c.105.127.26.652.26 1.578 0 .925-.155 1.45-.26 1.578a.07.07 0 0 1-.107 0z"/><path fill="#7d7f82" d="M110.629 4.022c0 .198-.101.359-.226.359s-.226-.161-.226-.36.101-.359.226-.359.226.161.226.36"/><path fill="#fff" d="M110.445.625c-.139 0-.241.124-.316.307h.284q.01 0 .02.004l.012-.019c.092.113.243.633.243 1.534 0 .9-.151 1.42-.243 1.533a.5.5 0 0 1-.06-.114c-.125.085-.067.334.064.406.503-.009.518-1.639.518-1.825 0-.187-.015-1.826-.522-1.826"/><path fill="#cbccce" d="M110.449 4.346a.1.1 0 0 1-.034-.009.37.37 0 0 1-.169-.299c-.004-.097.032-.18.1-.226a.07.07 0 0 1 .098.022c.077-.204.175-.664.175-1.383 0-.809-.125-1.29-.202-1.447l-.003-.001-.285-.001a.07.07 0 0 1-.058-.031.07.07 0 0 1-.006-.065q.144-.35.38-.35c.549 0 .591 1.45.591 1.895 0 .442-.042 1.885-.586 1.895zm-.064-.325v.01a.25.25 0 0 0 .082.174c.315-.046.43-1.066.43-1.754 0-.706-.12-1.757-.452-1.757q-.114 0-.206.168h.163a.07.07 0 0 1 .097.01c.104.128.259.653.259 1.579s-.155 1.45-.259 1.578a.07.07 0 0 1-.108 0z"/><path fill="#7d7f82" d="M116.565 4.022c0 .198-.101.359-.226.359s-.226-.161-.226-.36.101-.359.226-.359.226.161.226.36"/><path fill="#fff" d="M116.38.625c-.139 0-.241.124-.315.307h.284q.01 0 .019.004l.012-.019c.093.113.244.633.244 1.534 0 .9-.151 1.42-.244 1.533a.5.5 0 0 1-.059-.114c-.126.085-.068.334.064.406.502-.009.517-1.639.517-1.825 0-.187-.015-1.826-.522-1.826"/><path fill="#cbccce" d="M116.385 4.346a.1.1 0 0 1-.034-.009.37.37 0 0 1-.169-.299c-.004-.097.032-.18.1-.226a.07.07 0 0 1 .059-.008q.025.007.039.03c.076-.204.174-.664.174-1.383 0-.809-.124-1.29-.202-1.447l-.003-.001-.284-.001a.07.07 0 0 1-.058-.031.07.07 0 0 1-.007-.065q.143-.35.38-.35c.549 0 .592 1.45.592 1.895 0 .442-.043 1.885-.586 1.895zm-.064-.325v.01a.24.24 0 0 0 .082.174c.315-.046.43-1.066.43-1.754 0-.706-.121-1.757-.453-1.757q-.114 0-.206.168h.163a.07.07 0 0 1 .097.01c.104.128.259.653.259 1.579s-.155 1.45-.259 1.578a.07.07 0 0 1-.107 0z"/><path fill="#e2d3cb" d="M180.179 0h-51.321v77.024h51.321z"/><path fill="#b7a49c" d="m124.525 69.805 4.333 7.22V0h-4.333z"/><path fill="#cb966a" d="M181.888 73.535h-53.007v3.477h53.007z"/><path fill="#cb966a" d="M181.888 73.535h-53.007v.683h53.007z" opacity=".5" style="mix-blend-mode:screen"/><path fill="#cb966a" d="M181.888 75.988h-53.007v1.024h53.007z" opacity=".4" style="mix-blend-mode:multiply"/><path fill="#cb966a" d="m128.872 73.585-4.347-7.258v3.478l4.347 7.257z"/><path fill="#cb966a" d="m128.872 73.585-4.347-7.258v.683l4.347 7.258z" opacity=".5" style="mix-blend-mode:screen"/><path fill="#cb966a" d="m128.872 76.039-4.347-7.258v1.024l4.347 7.258z" opacity=".4" style="mix-blend-mode:multiply"/><path fill="#e2d3cb" d="M180.046-1.989s.054 72.581-25.567 72.581-25.621-72.58-25.621-72.58v75.523h51.188z" opacity=".4" style="mix-blend-mode:multiply"/></g><defs><linearGradient id="b" x1="-6.558" x2="46.442" y1="46.419" y2="8.562" gradientUnits="userSpaceOnUse"><stop stop-color="#fff"/><stop offset=".997" stop-color="#4982c3"/></linearGradient><linearGradient id="c" x1="9.285" x2="61.566" y1="61.678" y2="24.334" gradientUnits="userSpaceOnUse"><stop stop-color="#fff"/><stop offset=".997" stop-color="#4982c3"/></linearGradient><linearGradient id="d" x1="38.936" x2="38.936" y1="64.313" y2="4.123" gradientUnits="userSpaceOnUse"><stop stop-color="#a0bde0"/><stop offset=".997" stop-color="#4982c3"/></linearGradient><linearGradient id="e" x1="35.19" x2="88.189" y1="-1.989" y2="-1.989" gradientUnits="userSpaceOnUse"><stop stop-color="#fff"/><stop offset=".997" stop-color="#4982c3"/></linearGradient><linearGradient id="f" x1="51.033" x2="103.314" y1="61.678" y2="24.334" gradientUnits="userSpaceOnUse"><stop stop-color="#fff"/><stop offset=".997" stop-color="#4982c3"/></linearGradient><linearGradient id="g" x1="80.683" x2="80.683" y1="-1.989" y2="-1.989" gradientUnits="userSpaceOnUse"><stop stop-color="#a0bde0"/><stop offset=".997" stop-color="#4982c3"/></linearGradient><linearGradient id="h" x1="22.591" x2="22.591" y1="11.256" y2="-3.213" gradientUnits="userSpaceOnUse"><stop offset=".156" stop-color="#fff"/><stop offset="1" stop-color="#999"/></linearGradient><linearGradient id="i" x1="9.987" x2="15.063" y1="36.804" y2="36.804" gradientUnits="userSpaceOnUse"><stop offset=".156" stop-color="#fff"/><stop offset="1" stop-color="#999"/></linearGradient><linearGradient id="j" x1="6.229" x2="9.889" y1="36.796" y2="36.796" gradientUnits="userSpaceOnUse"><stop offset=".156" stop-color="#fff"/><stop offset="1" stop-color="#999"/></linearGradient><linearGradient id="k" x1="16.057" x2="21.626" y1="36.809" y2="36.809" gradientUnits="userSpaceOnUse"><stop offset=".156" stop-color="#fff"/><stop offset="1" stop-color="#999"/></linearGradient><linearGradient id="l" x1="32.898" x2="38.393" y1="36.805" y2="36.805" gradientUnits="userSpaceOnUse"><stop offset=".156" stop-color="#fff"/><stop offset="1" stop-color="#999"/></linearGradient><linearGradient id="m" x1="22.446" x2="26.919" y1="36.81" y2="36.81" gradientUnits="userSpaceOnUse"><stop offset=".156" stop-color="#fff"/><stop offset="1" stop-color="#999"/></linearGradient><linearGradient id="n" x1="27.877" x2="33.018" y1="36.808" y2="36.808" gradientUnits="userSpaceOnUse"><stop offset=".156" stop-color="#fff"/><stop offset="1" stop-color="#999"/></linearGradient><linearGradient id="o" x1="99.675" x2="99.675" y1="24" y2="-17" gradientUnits="userSpaceOnUse"><stop offset=".156" stop-color="#fff"/><stop offset="1" stop-color="#999"/></linearGradient><linearGradient id="p" x1="87.072" x2="92.148" y1="36.804" y2="36.804" gradientUnits="userSpaceOnUse"><stop offset=".156" stop-color="#fff"/><stop offset="1" stop-color="#999"/></linearGradient><linearGradient id="q" x1="83.314" x2="86.973" y1="36.796" y2="36.796" gradientUnits="userSpaceOnUse"><stop offset=".156" stop-color="#fff"/><stop offset="1" stop-color="#999"/></linearGradient><linearGradient id="r" x1="93.142" x2="98.71" y1="36.809" y2="36.809" gradientUnits="userSpaceOnUse"><stop offset=".156" stop-color="#fff"/><stop offset="1" stop-color="#999"/></linearGradient><linearGradient id="s" x1="109.983" x2="115.478" y1="36.805" y2="36.805" gradientUnits="userSpaceOnUse"><stop offset=".156" stop-color="#fff"/><stop offset="1" stop-color="#999"/></linearGradient><linearGradient id="t" x1="99.531" x2="104.004" y1="36.81" y2="36.81" gradientUnits="userSpaceOnUse"><stop offset=".156" stop-color="#fff"/><stop offset="1" stop-color="#999"/></linearGradient><linearGradient id="u" x1="104.962" x2="110.103" y1="36.808" y2="36.808" gradientUnits="userSpaceOnUse"><stop offset=".156" stop-color="#fff"/><stop offset="1" stop-color="#999"/></linearGradient></defs></svg>