<svg xmlns="http://www.w3.org/2000/svg" fill="none" viewBox="0 0 180 100"><mask id="a" width="180" height="100" x="0" y="0" maskUnits="userSpaceOnUse" style="mask-type:luminance"><path fill="#fff" d="M180 0H0v100h180z"/></mask><g mask="url(#a)"><path fill="#bd8b5e" d="M181.712 72.707H-1.691v29.577h183.403z"/><path fill="#635049" d="M181.888 102.421H-1.867V72.57h183.755zm-183.404-.274h183.053V72.844H-1.516z"/><path fill="#bd8b5e" d="M18.246 81.238h142.097c10.932 0 20.172 6.702 21.369 15.095V72.707H-1.691V91.92c3.213-6.211 11.01-10.682 19.937-10.682" opacity=".4" style="mix-blend-mode:multiply"/><path fill="#82593b" d="M-1.867 102.445v-29.9h183.755v29.9zm.352-.323h183.05V72.869H-1.515z"/><path fill="#82593b" d="M-1.691 97.498v-.324h183.403v.324zm0-4.518v-.322h183.403v.321zm0-4.518v-.321h183.403v.321zm0-4.516v-.324h183.403v.324zm0-4.518v-.321h183.403v.321z"/><path fill="#ffe7bd" d="M181.968-5H-2v71.507h183.968z"/><path fill="#ffc76e" d="M181.696 49.99H-1.867v22.706h183.563z"/><path fill="#e8a554" d="M7.984 49.99H.97v22.706h7.014zm15.552 0h-7.014v22.706h7.014zm15.551 0h-7.014v22.706h7.014zm15.552 0h-7.014v22.706h7.014zm15.551 0h-7.014v22.706h7.014zm15.552 0h-7.014v22.706h7.014zm15.551 0h-7.014v22.706h7.014zm15.552 0h-7.014v22.706h7.014zm15.551 0h-7.014v22.706h7.014zm15.552 0h-7.014v22.706h7.014zm15.552 0h-7.014v22.706h7.014zm15.551 0h-7.014v22.706h7.014z"/><path fill="#cb966a" d="M181.888 46.489H-1.574v3.477h183.462z"/><path fill="#cb966a" d="M181.888 46.489H-1.574v.682h183.462z" opacity=".5" style="mix-blend-mode:screen"/><path fill="#cb966a" d="M181.888 48.942H-1.574v1.024h183.462z" opacity=".4" style="mix-blend-mode:multiply"/><path fill="#d1d1d3" d="m74.132 3.855-.258-.279-.025-.008a.76.76 0 0 0-.474-.164H37.413a.77.77 0 0 0-.682.415l-.119.291.003 40.198.003.144.027.067.007.022.053.181.25.243.141.057.134.056h36.214a.77.77 0 0 0 .77-.77V4.245l-.001-.073.004-.07zm70.96 0-.257-.279-.025-.008a.76.76 0 0 0-.475-.164h-35.962a.77.77 0 0 0-.682.415l-.118.291.003 40.198.002.144.028.067q.002.012.006.022l.054.181.248.243.143.057.133.056h36.214a.77.77 0 0 0 .771-.77V4.245l-.002-.073.004-.07z" style="mix-blend-mode:multiply"/><path fill="#d0aa83" d="M73.332 4.336H37.275V44.4h36.057z"/><path fill="#b38331" d="M73.332 44.484H37.275a.084.084 0 0 1-.084-.084V4.337c0-.047.037-.084.084-.084h36.057c.046 0 .084.037.084.084V44.4a.084.084 0 0 1-.084.084m-35.974-.168h35.89V4.42h-35.89z"/><path fill="#d0aa83" d="m55.303 24.368 16.238 18.498 1.774 1.534h.017V4.336L71.54 5.871z"/><path fill="#b38331" d="M73.332 44.484h-.017a.1.1 0 0 1-.055-.02l-1.774-1.535L55.24 24.423a.084.084 0 0 1 0-.11L71.478 5.816l1.8-1.543a.084.084 0 0 1 .137.063V44.4a.084.084 0 0 1-.083.084M55.415 24.368 71.602 42.81l1.645 1.421V4.518l-1.653 1.416z"/><path fill="#ccc" d="M55.303 24.452a.08.08 0 0 1-.063-.029L39.003 5.926 37.22 4.4a.084.084 0 0 1 .055-.147h36.057a.084.084 0 0 1 .054.147l-1.791 1.534-16.229 18.49a.08.08 0 0 1-.063.028M37.501 4.42l1.62 1.387 16.182 18.434L71.478 5.816l1.628-1.396z"/><path fill="#ccc" d="M37.275 44.484a.084.084 0 0 1-.084-.084V4.336a.084.084 0 0 1 .138-.063l1.791 1.534 16.246 18.506a.084.084 0 0 1 0 .11L39.13 42.921l-1.8 1.543a.1.1 0 0 1-.054.02m.083-39.966v39.7l1.653-1.416 16.18-18.434L39.004 5.926z"/><path fill="#d0aa83" d="M71.54 42.866 55.304 24.367 39.066 42.866 37.275 44.4h36.04z"/><path fill="#b38331" d="M73.315 44.484h-36.04a.084.084 0 0 1-.055-.148l1.791-1.534 16.23-18.49a.087.087 0 0 1 .125 0L71.603 42.81l1.767 1.527a.084.084 0 0 1-.055.147m-35.814-.168h35.59l-1.605-1.387-16.183-18.434L39.13 42.921z"/><path fill="#9f8365" d="M71.54 5.87H39.067v36.995H71.54z"/><path fill="#926c24" d="M71.54 42.95H39.067a.084.084 0 0 1-.084-.085V5.871c0-.046.038-.084.084-.084H71.54c.046 0 .083.038.083.084v36.994a.084.084 0 0 1-.083.084m-32.39-.168h32.307V5.955H39.15z"/><path fill="#d8d9da" d="M71.1 6.29H39.506v35.99H71.1z"/><path fill="#9e9fa0" d="M71.1 42.363H39.506a.084.084 0 0 1-.083-.083V6.29c0-.047.037-.084.083-.084H71.1c.046 0 .083.037.083.083v35.99a.084.084 0 0 1-.083.084m-31.51-.167h31.426V6.373H39.59z"/><path fill="#fff" d="M70.557 6.805H40.035v34.986h30.522z"/><path fill="url(#b)" d="M54.493 7.796H41.058v33.27h13.435z"/><path fill="#d5d7d8" d="M54.493 41.15H41.058a.084.084 0 0 1-.083-.084V7.796c0-.046.037-.084.083-.084h13.435c.046 0 .084.038.084.084v33.27a.084.084 0 0 1-.084.084m-13.35-.168h13.266V7.88H41.142z"/><path fill="#ebebec" d="M41.058 7.796v33.27h13.435V7.796zM53.681 40.34H42.57V10.767h11.11z" style="mix-blend-mode:multiply"/><path fill="url(#c)" d="M69.493 7.796H56.058v33.27h13.435z"/><path fill="#d5d7d8" d="M69.548 41.15H56.113a.084.084 0 0 1-.084-.084V7.796c0-.046.038-.084.084-.084h13.435c.046 0 .084.038.084.084v33.27a.084.084 0 0 1-.084.084m-13.351-.168h13.267V7.88H56.197z"/><path fill="#ebebec" d="M56.113 7.796v33.27h13.435V7.796zM68.736 40.34H57.625V10.767h11.11z" style="mix-blend-mode:multiply"/><path fill="#d0aa83" d="M144.32 4.336h-36.058V44.4h36.058z"/><path fill="#b38331" d="M144.32 44.484h-36.058a.083.083 0 0 1-.083-.084V4.337c0-.047.037-.084.083-.084h36.058c.046 0 .083.037.083.084V44.4a.083.083 0 0 1-.083.084m-35.974-.168h35.89V4.42h-35.89z"/><path fill="#d0aa83" d="m126.291 24.368 16.237 18.498 1.775 1.534h.017V4.336l-1.792 1.535z"/><path fill="#b38331" d="M144.32 44.484h-.017a.1.1 0 0 1-.055-.02l-1.774-1.535-16.246-18.506a.083.083 0 0 1 0-.11l16.238-18.497 1.799-1.543a.09.09 0 0 1 .09-.013.08.08 0 0 1 .048.076V44.4a.083.083 0 0 1-.083.084m-17.918-20.116 16.189 18.442 1.645 1.421V4.518l-1.653 1.416z"/><path fill="#ccc" d="M126.291 24.452a.08.08 0 0 1-.063-.029L109.991 5.926 108.208 4.4a.08.08 0 0 1-.024-.092.08.08 0 0 1 .078-.055h36.058c.035 0 .066.022.078.055a.08.08 0 0 1-.024.092l-1.791 1.534-16.229 18.49a.08.08 0 0 1-.063.028M108.489 4.42l1.619 1.387 16.183 18.434 16.175-18.425 1.627-1.396z"/><path fill="#ccc" d="M108.262 44.484a.1.1 0 0 1-.035-.008.08.08 0 0 1-.048-.076V4.336c0-.032.019-.062.048-.076a.09.09 0 0 1 .09.013l1.791 1.534 16.246 18.506a.083.083 0 0 1 0 .11l-16.237 18.498-1.8 1.543a.1.1 0 0 1-.055.02m.084-39.966v39.7l1.653-1.416 16.181-18.434-16.189-18.442z"/><path fill="#d0aa83" d="m142.528 42.866-16.237-18.498-16.237 18.498-1.792 1.534h36.041z"/><path fill="#b38331" d="M144.303 44.484h-36.041a.08.08 0 0 1-.078-.055.08.08 0 0 1 .024-.093l1.791-1.534 16.229-18.49a.087.087 0 0 1 .126 0l16.237 18.498 1.767 1.527c.026.022.036.06.024.092a.09.09 0 0 1-.079.055m-35.814-.168h35.589l-1.604-1.387-16.183-18.434-16.174 18.426z"/><path fill="#9f8365" d="M142.528 5.87h-32.474v36.995h32.474z"/><path fill="#926c24" d="M142.528 42.95h-32.474a.083.083 0 0 1-.084-.085V5.871c0-.046.037-.084.084-.084h32.474c.047 0 .084.038.084.084v36.994a.083.083 0 0 1-.084.084m-32.391-.168h32.308V5.955h-32.308z"/><path fill="#d8d9da" d="M142.088 6.29h-31.594v35.99h31.594z"/><path fill="#9e9fa0" d="M142.088 42.363h-31.594a.083.083 0 0 1-.083-.083V6.29c0-.047.037-.084.083-.084h31.594c.046 0 .083.037.083.083v35.99a.083.083 0 0 1-.083.084m-31.51-.167h31.426V6.373h-31.426z"/><path fill="#fff" d="M141.545 6.805h-30.522v34.986h30.522z"/><path fill="url(#d)" d="M125.493 7.796h-13.435v33.27h13.435z"/><path fill="#d5d7d8" d="M125.481 41.15h-13.435a.083.083 0 0 1-.083-.084V7.796c0-.046.037-.084.083-.084h13.435c.046 0 .084.038.084.084v33.27a.084.084 0 0 1-.084.084m-13.351-.168h13.267V7.88H112.13z"/><path fill="#ebebec" d="M112.046 7.796v33.27h13.435V7.796zm12.623 32.545h-11.111V10.767h11.111z" style="mix-blend-mode:multiply"/><path fill="url(#e)" d="M140.493 7.796h-13.435v33.27h13.435z"/><path fill="#d5d7d8" d="M140.536 41.15h-13.435a.084.084 0 0 1-.084-.084V7.796c0-.046.038-.084.084-.084h13.435c.046 0 .083.038.083.084v33.27a.083.083 0 0 1-.083.084m-13.351-.168h13.267V7.88h-13.267z"/><path fill="#ebebec" d="M127.101 7.796v33.27h13.435V7.796zm12.622 32.545h-11.11V10.767h11.11z" style="mix-blend-mode:multiply"/></g><defs><linearGradient id="b" x1="47.776" x2="47.776" y1="49.017" y2="-.787" gradientUnits="userSpaceOnUse"><stop stop-color="#fff"/><stop offset=".146" stop-color="#fafdfd"/><stop offset=".315" stop-color="#ecf7f8"/><stop offset=".494" stop-color="#d5eef1"/><stop offset=".495" stop-color="#d5eef1"/><stop offset=".87" stop-color="#b4e1eb"/><stop offset="1" stop-color="#a8dde9"/></linearGradient><linearGradient id="c" x1="82.5" x2="38.5" y1="26" y2="26" gradientUnits="userSpaceOnUse"><stop stop-color="#fff"/><stop offset=".146" stop-color="#fafdfd"/><stop offset=".315" stop-color="#ecf7f8"/><stop offset=".494" stop-color="#d5eef1"/><stop offset=".495" stop-color="#d5eef1"/><stop offset=".87" stop-color="#b4e1eb"/><stop offset="1" stop-color="#a8dde9"/></linearGradient><linearGradient id="d" x1="138.5" x2="94.5" y1="26" y2="26" gradientUnits="userSpaceOnUse"><stop stop-color="#fff"/><stop offset=".146" stop-color="#fafdfd"/><stop offset=".315" stop-color="#ecf7f8"/><stop offset=".494" stop-color="#d5eef1"/><stop offset=".495" stop-color="#d5eef1"/><stop offset=".87" stop-color="#b4e1eb"/><stop offset="1" stop-color="#a8dde9"/></linearGradient><linearGradient id="e" x1="153.5" x2="109.5" y1="26" y2="26" gradientUnits="userSpaceOnUse"><stop stop-color="#fff"/><stop offset=".146" stop-color="#fafdfd"/><stop offset=".315" stop-color="#ecf7f8"/><stop offset=".494" stop-color="#d5eef1"/><stop offset=".495" stop-color="#d5eef1"/><stop offset=".87" stop-color="#b4e1eb"/><stop offset="1" stop-color="#a8dde9"/></linearGradient></defs></svg>